<svg id="圖層_1" data-name="圖層 1" xmlns="http://www.w3.org/2000/svg" viewBox="0 0 530 268"><defs><style>.cls-1{fill:#654b34;}</style></defs><title>banner-mark</title><path class="cls-1" d="M305.94,76.38a3.16,3.16,0,0,0,.83,4.18,1.67,1.67,0,0,1,0,.18,2,2,0,0,1,3.05,0,1.4,1.4,0,0,1,.48-.6c.26-.14.53-.27.8-.4a5.7,5.7,0,0,1-1.77.06A4.11,4.11,0,0,1,305.94,76.38Z"/><path class="cls-1" d="M314.26,77.1c1.76-3.19,1.47-4.87-1-5.49C315.09,73,315.36,74.58,314.26,77.1Z"/><path class="cls-1" d="M92.21,95.27a2.17,2.17,0,0,1-.76-.26c-1-.44-2.32.63-3.27-.5l-5.07-.83a9.82,9.82,0,0,0-1.11.66,51.88,51.88,0,0,0-5.2,3.72c-.49.45-1.07,1-.86,1.68.29,1,1.23.88,2,.83a17.33,17.33,0,0,0,6.42-2.09A35.62,35.62,0,0,1,92.21,95.27Z"/><path class="cls-1" d="M357.92,226c2.14,0,2.67-2.25,3-4.19.83-4.53.53-9.11.49-13.66a3.42,3.42,0,0,1,2.28-3.62,95.27,95.27,0,0,0,10.64-6.47c2-1.37,5.74-3.13,4.34-5.37-1.78-2.84-4.71.11-6.88,1.38-3.31,1.94-6.27,4.53-10.43,5.55-.2-3.4-.3-6.61-.62-9.8-.2-1.93.4-2.86,2.34-3.35,4-1,7.88-2.63,12-3.17,1-.14,2.26-.41,2-1.92-.19-1.3-1.18-1.62-2.36-1.68-2.71-.14-5.33.51-8,.85-6.73.86-6.67.79-6.84-6.08-.05-2.09.45-2.78,2.62-2.79a94.39,94.39,0,0,0,9.63-.69c1.83-.19,4.33-.29,4.14-2.73-.15-2-2.46-2.1-4.25-2.12-3.09,0-6.19-.24-9.26-.07-2.52.13-3.24-.86-3.19-3.25s.42-4.86-.42-7.2-2.43-3.42-4.33-1a67.59,67.59,0,0,0-5.71,8.26c-5.1,8.83-10,17.77-16.38,25.79-.76,1-1.17,2.36-2.46,2.63,0-5.23,0-10.33,0-15.43,0-2.33.71-3.82,3.25-4.06,1.08-.1,2.29-.5,2.33-1.79s-1.33-1.73-2.3-1.76c-3-.11-2.87-2-2.71-4.11.29-3.88.56-7.77.67-11.65,0-1.55,0-3.63-2.09-3.73-2-.09-3.14,1.52-3.39,3.39a68.17,68.17,0,0,0-.83,9.62c0,4-.61,6.51-5.62,6.3-2.34-.1-6.75-.22-6.36,3.68.34,3.47,4.22,2.19,6.74,2.47,1.3.14,2.76-.74,3.88.2,1.59,1.33-.61,8.87-2.67,9.45a25,25,0,0,0-9,4.37c-1.19.95-2.94,2.06-1.68,3.93s2.86.8,4.26,0c2.77-1.55,5.17-3.78,8.29-4.63,1.93,8.42.13,15.4-6.2,21a15.23,15.23,0,0,0-2.36,3.24c-.74,1.14-1.53,2.43-.33,3.64s2.86.63,4-.36c1.82-1.64,3.43-3.52,5.47-5.67.36,7.17.59,13.74,1.08,20.29.15,2.07.51,4.91,3.29,4.73s2.09-3,2.09-4.87q0-12.89-.25-25.79a8.91,8.91,0,0,1,1.86-5.94,260.88,260.88,0,0,0,18.71-28.61c1-1.68,2-3.32,3-5l1.31.23c0,13.1,0,26.19,0,39.29,0,5.91.05,11.82.26,17.72C355.13,223.42,355.32,226,357.92,226Z"/><path class="cls-1" d="M146.59,198.24c-.5-3.85-1-7.73-2.76-11.26-.59-1.19-1.45-2.58-3-2.07-1.39.45-1.25,2-1.08,3.16.52,3.57,1.13,7.14,1.84,10.68,1.1,5.48,1.13,5.36-4.55,6.12-2.29.31-3.12-.12-2.84-2.58.18-1.6.95-4.19-.94-4.64-2.46-.59-2.74,2.37-3.73,4a5,5,0,0,0-.69,1.88c-.3,2.24-1.58,3-3.76,3.29-4.79.56-9.55,1.3-14.3,2.15-1.73.31-3.46,1.13-3.24,3.41.26,2.58,2.36,2.11,4,2.18,4.82.2,9.44-1.46,14.57-2-.79,2.25-1.46,4.12-2.09,6a156.7,156.7,0,0,1-6.49,16c-.54,1.16-.94,2.65.58,3.59s2.57-.08,3.49-1a23.73,23.73,0,0,0,4.24-7.25c1.7-4,3.23-8,5-12.45,4.11,4.79,7.47,9.5,11.83,13.28,1.41,1.22,3.32,3.44,5,1.72,1.49-1.49-.65-3.41-1.71-4.84a95,95,0,0,0-12-13c-1.14-1.06-2.57-2.7-.87-3.54,2.82-1.4,6.12-1.8,9.18-2.73,1.94-.59,1.66,1.25,2.4,2s1.88.4,1.94-.31c.3-3.48,3.68-4.16,5.87-6.94C146.93,204.93,147,201.43,146.59,198.24Z"/><path class="cls-1" d="M452.32,158.51c-4.2.21-5.82-1.51-5.76-5.64a2.73,2.73,0,0,0-3-2.7c-1.77.14-2.4,1.5-2.56,3.11a8.34,8.34,0,0,0-.17,2c.33,2.28-.79,2.7-2.79,2.61-3.49-.15-7-.12-10.47-.06-1.7,0-2.8-.23-2.83-2.33,0-1.72-.26-3.75-2.73-3.66a3.18,3.18,0,0,0-3.18,3.49c.06,2.69-1.54,2.55-3.39,2.59-3.89.09-7.78.21-11.66.53-1.7.14-3.73.53-4,2.72a5.42,5.42,0,0,0,2.6,5.52c1.33.77,3.36,2.2,3.58-1.23.11-1.79,1.5-2.44,3.1-2.55,2.14-.15,4.3-.07,6.44-.29,2.49-.26,3.26.66,3.14,3.15-.18,3.75-.08,7.52.11,11.27.1,2,1,3.7,3.22,4.1a4.32,4.32,0,0,0,4.3-1.64c.83-1.06,1.46-2.83-.86-2.53s-2.2-1-2.16-2.3c.1-3.22.4-6.43.58-9.64.11-1.91,1.13-2.41,2.92-2.33,3.75.16,7.52.28,11.28.15,2.52-.09,2.77,1,2.62,3.15a39.45,39.45,0,0,1-4.81,16.46c-.79,1.43-2.26,2.73-1.62,5,2.63-.57,4-2.5,5.37-4.44a34.9,34.9,0,0,0,5.26-14.23c.7-4.28,2.28-6.06,6.7-5.15,1.62.34,3.85.39,4.15-2S454,158.43,452.32,158.51Z"/><path class="cls-1" d="M151.79,148.28c-3.29-1.1-6.65-.85-10-.55-2.09.19-2.51-.37-2.21-2.36a17.14,17.14,0,0,0-.44-7.58c-.71-2.35-2.15-4-4.59-3.58-2.75.44-3,2.86-2.59,5.08.43,2.64,1.12,5.24,1.75,7.84.3,1.23.68,2.35-1.07,2.86-4.74,1.38-9.13,3.65-13.77,5.89-.34-2.56-.54-4.82-1-7-.29-1.46-.92-2.92-2.79-2.92s-2.54,1.44-2.68,3c-.56,6.28-1.36,12.57-.25,18.86.29,1.63.09,3.93,2.45,4s3.05-2.33,3.07-4c0-3.35,2-5.09,4.41-6.65,2.24-1.46,4.47-3,6.84-4.21a31.81,31.81,0,0,1,15.4-4c5.42.1,6.58,2.08,4,6.76a63.23,63.23,0,0,1-4.74,6.47c-.48.64-1.12,1.31-.41,2.1.58.64,1.23,0,1.82-.17,4.85-1.77,10.27-9.76,10.25-14.92A4.53,4.53,0,0,0,151.79,148.28Z"/><path class="cls-1" d="M197.32,233.3c1.46-1.56-.62-2.88-1.55-4-4-4.68-7.64-9.7-13.56-13,5-1.92,9.92-3.13,14-6,1.74-1.2,5-2.46,3.59-4.88-1.19-2-3.85.13-5.74,1-2.94,1.3-5.66,3.25-9.34,3.13,1-3.41,2.5-6.33,2.7-9.57.07-1.1.66-2.64-.88-3.12-1.17-.37-1.86.84-2.5,1.67a29.64,29.64,0,0,0-5,9.58c-1.13,3.72-3.65,4.52-6.91,4.68-2.8.14-5.67-.19-8.35.91-1.12.46-2.35,1.1-2.12,2.55.2,1.28,1.48,1.46,2.54,1.48,3.34.06,6.67,0,10.63,0-2.46,5.53-4.93,10.69-7,16-1.15,2.89-4.63,7.2-1.23,8.76,3.2,1.47,4.45-4,5.95-6.75,2.59-4.75,4.72-9.75,7.14-14.84,1,.84,1.76,1.41,2.46,2,3.52,3.1,7,6.29,10.59,9.28C194,233.32,195.83,234.9,197.32,233.3Z"/><path class="cls-1" d="M122.6,91.16c-1.35,2.41,0,2.21,1.28,2.8,1.51.71,4.39.1,4.4,2,0,4,4,5.25,4.6,8.94,1.4-5,5.17-7.45,8.24-10.45,1.76-1.73,5-2.48,1-6C136.34,83.22,126.44,84.31,122.6,91.16Z"/><path class="cls-1" d="M202.33,148.69a53.45,53.45,0,0,0-10-.32c-3.57.27-5.72-.12-4.31-4.46a12.12,12.12,0,0,0,.16-3.19c0-1-.13-2-1.11-2.38a2.5,2.5,0,0,0-2.84,1,8.42,8.42,0,0,0-1.82,4c-1.32,5.85-.8,11.7.07,17.54.19,1.29.19,3.11,1.81,3.14,1.88,0,1.92-1.95,2.16-3.32,1.18-6.76,1.15-6.76,8.24-6.69h1.61v.13c1.87,0,3.75,0,5.62,0,1.69.05,3.74.76,4-1.89S204.14,148.9,202.33,148.69Z"/><path class="cls-1" d="M128.49,163.82c-1.54-.48-2.36,1.07-3.05,2.14-5.25,8.12-10,16.49-13,25.75-.42,1.29-1.61,2.9.38,3.86,1.82.88,2.73-.74,3.49-1.89,4.69-7,9.27-14.13,12.26-22.09.51-1.37.8-2.82,1.13-4C129.42,166.07,130.11,164.32,128.49,163.82Z"/><path class="cls-1" d="M123.58,49.79c1-4,1.33-7.12,4.81-7.67,2.89-.46,1.74,2.77,3.06,3.83,1.47-.33,1.55-1.77,2.29-2.63,1.4-1.64,3.45-2,4.26,0,1.3,3.17,4,5,5.95,7.44.74.24,1.06,0,.82-.76-.47-3-4-6.08.42-8.82,1-.6,1.35-2.59,2.63-2,1.57.69,1.31,2.59.88,4-1.38,4.41-1.57,9-1.83,13.51-.08,1.46-.39,3,1,4.91,1.71-8.78,3.92-16.73,4-25.53-11.38,4.42-23.05,6.76-35.18,2A18.94,18.94,0,0,1,123.58,49.79Z"/><path class="cls-1" d="M64.7,37.75a1,1,0,0,0,.92-1.11c-.34-3.34,1.9-2.18,3.34-1.8,7.49,2,15,4.14,22,7.45,4.84,2.27,9.44,3.81,13.84-.79.62-.65,1.69-.83,2.42-1.4,1.15-.89,3.82-1.1,3-2.95s-2.94-.17-4.24.27c-7.23,2.41-14.09,3-21.34-.62C79.05,34,72.81,32.64,66.9,30.52c-2.85-1-4.07-.1-4.05,2.76.17,1.12.27,2.19.52,3.23C63.52,37.15,63.88,37.78,64.7,37.75Z"/><path class="cls-1" d="M174.34,39.19c8.35-4.27,16.52-8.87,24.59-13.66,2.11-1.25,4.23-4.85,7.58-1.75.09.09.85-.24.9-.46.29-1.28,1.26-2.54.6-3.86s-2.12-1.05-3.21-.63a24.81,24.81,0,0,0-5.05,2.44c-9.52,6.44-19.5,11.76-31.14,13.2-.75.09-1.66.12-1.86,1.12C166.74,36.91,173,39.87,174.34,39.19Z"/><path class="cls-1" d="M149.18,188.57c.17-6.55-8.87-21-13.8-23.22-1.31-.59-2.64-.9-3.63.42a2.66,2.66,0,0,0,.49,3.66A137.32,137.32,0,0,1,149.18,188.57Z"/><path class="cls-1" d="M93.28,71.32c7,5.75,15,5.64,23.44,5C113,68.92,102.77,67.24,93.28,71.32Z"/><path class="cls-1" d="M133.42,105.65c-1.47,4.8-5.22,6-8.84,7.42l-3.21,1c1.35.64,2.31.68,3.12-.32,5.53-.32,10.8,1.89,16.32,1.66a3.59,3.59,0,0,1,3.21,2.09c1.32,2.24,2.73,2.2,4.36.39.89-1,2.57-.79,3.28-2.21C146.22,111.3,136.83,114.53,133.42,105.65Z"/><path class="cls-1" d="M426,85.82a4.33,4.33,0,0,0,2.66-4.1c0-1.89-1.49-2.28-2.92-2.72-2-.62-4.06-1.27-6.09-1.91-1.36-.43-2.71-.49-3.68.7s-.83,2.73-.12,4.13l3,6c.25,4.18-2.9,5.23-5.88,6.55-1.65.73-3.82.38-5.32,2.4,5.16.43,10.18-2.69,14.68,1.42-3.19-4.75-3.27-5.09-2-9.57C422.25,87.78,424.09,86.73,426,85.82Z"/><path class="cls-1" d="M202.41,244a24.77,24.77,0,0,1-3.21,0v0a43.59,43.59,0,0,0-4.81,0c-2.49.28-1.46,2.43-1.77,3.81-.21.9-.21,2.21.84,2.42,1.82.35,1.51-1.33,1.72-2.39.15-.74.46-1.21,1.3-1.16a1.23,1.23,0,0,1,1.18.84c1,2.19-.46,6.9-2.45,8.14a1.89,1.89,0,0,0-.88,1.16,1.14,1.14,0,0,0,1.25,1.22c2.41,0,4.81,0,7.22,0a1.88,1.88,0,0,0,1.25-.76c.34-.48.11-1.26-.39-1.34-5.11-.82-2-4.79-2.78-7.26-.25-.83-.17-2,1.27-1.95,1.1,0,1.23.78,1.24,1.64s.14,2.18,1.34,2c1.35-.19,1.07-1.57,1.16-2.63C206.07,245.24,205.47,243.56,202.41,244Z"/><path class="cls-1" d="M345.59,247.07c2-1.65,3.86-1,5.26,1.37,1,1.64,1.95,1.08,2.35-.59,1.19-4.91-2.79-3.61-5.3-4.32a6.7,6.7,0,0,0-6.6,4.12,7.63,7.63,0,0,0,1.1,8.65c2.18,2.52,5.07,2.81,8.1,1.78,1.35-.46,3.37-1,2.78-2.74-.68-2.05-2.15-.26-3.27,0-2.17.59-4.36,1-5.46-1.66C343.58,251.36,343.46,248.8,345.59,247.07Z"/><path class="cls-1" d="M307.63,250c-.31-1.84-1.35-3.19-3.09-3.08a40.06,40.06,0,0,1-6.55.27c-1.06-.11-2.08.66-1.08,2.12a5.55,5.55,0,0,1,.06,6.56c-.51.81-.72,1.75.19,2a7.43,7.43,0,0,0,4.3,0c1.86-.82-.13-1.82-.29-2.78-.29-1.76-.91-3.74.87-5.18a1.41,1.41,0,0,1,2.14.15,4.51,4.51,0,0,1,.29,5.26c-2.48,3.36.25,2.61,1.88,2.87,1.18-.28,3.68.16,2.53-1.73C307.56,254.27,308,252.15,307.63,250Z"/><path class="cls-1" d="M381.08,242.63c-1.6-.14-3.29-.33-4.7.54-2.05,1.26-1.72,4.52-4.37,5.45-.27.09.15.88.57,1.28,2.7,2.54,2.68,3.33.05,5.87a2.09,2.09,0,0,0-.62,1.33c0,.86.76,1,1.43,1,.93,0,1.87,0,2.81,0s2.14,0,3.21,0c.83,0,1.74-.12,1.84-1.11a1.25,1.25,0,0,0-1.54-1.37c-2.26.25-2.18-1.14-2.2-2.72,0-1.78.05-3.24,2.48-2.91a1.22,1.22,0,0,0,1.48-1c.12-.79-.35-1.14-1.05-1.42-1-.37-2.91.73-2.71-1.28s2-1.26,3.26-1.27c.72,0,1.38-.17,1.51-1C382.71,243,381.91,242.7,381.08,242.63Z"/><path class="cls-1" d="M319.78,255.52c-2.14.46-2.83-.46-3-2.51-.17-2.38,1.14-2.6,3-2.58.91,0,2.08-.1,2-1.36s-1.15-1.45-2.08-1.32c-2.33.32-3.06-.82-3.08-2.91a1.22,1.22,0,0,0-1.27-1.27c-.76,0-1.38.26-1.41,1.05-.06,1.63-.14,3-2.17,3.65-.74.22-.63,1.6.31,1.85,2.28.62,1.79,2.37,1.73,3.87-.16,3.45,1.82,4.42,4.93,4.36a10.18,10.18,0,0,0,1.06-.13c1.54-.33,3.88-.51,3.55-2.38C323,253.62,321,255.26,319.78,255.52Z"/><path class="cls-1" d="M113.08,62.47c.85,2.86,3.45,3.1,5.71,3.61,4.94,1.12,6.37,3.85,4.51,8.72-.61,1.61-2.3,2.87-1.83,5.15a13.44,13.44,0,0,0,4.42-6.37c2.76-7.65-1.46-12.86-9.4-11.77-1,.13-1.85.31-2.64-.42-.72-2.74,2-5.72-.77-9.41-.07,4.21-1.23,7.33,0,10.49Z"/><path class="cls-1" d="M390,37.74c1.85-.09,3.7,0,6,0a22.33,22.33,0,0,1-3.76-12.39l.11-.7a5.26,5.26,0,0,0,.23-1.41l1.09-6.73c-1.89,1.48-1.79,3.53-2.2,5.42-.85,4.07-2.93,7.68-4.4,11.51C385.33,38,385.3,38,390,37.74Z"/><path class="cls-1" d="M292.27,255.65c-2.7.33-2.65-1.34-2.56-3.2a31.25,31.25,0,0,0,0-4c-.12-1.52-1.36-1.42-2.41-1.4s-2.63-.38-3.15,1c-.42,1.15.84,1.3,1.56,1.84,1.75,1.3,1.3,5.13-.59,5.61-1,.26-2.51,0-2.33,1.45.2,1.67,1.86,1,3,1.15a23.91,23.91,0,0,0,2.4,0v0c1.33,0,2.67,0,4,0,.65,0,1.39-.12,1.51-1A1.19,1.19,0,0,0,292.27,255.65Z"/><path class="cls-1" d="M143.63,60.59c-2.39-3.19.11-8.4-4.65-11.14,1,7.7,1.25,15,4.15,22C141.93,67.68,146.47,64.37,143.63,60.59Z"/><path class="cls-1" d="M312.92,122.85c-2.82,0-6.49-.43-8.06,1.18-4.35,4.45-9.64,4.71-15.09,5.17l-5.71-1.64a3.7,3.7,0,0,0-4.77.39l3,.43a17.63,17.63,0,0,0,7.48,1.34C298.79,131.79,306.06,128.06,312.92,122.85Z"/><path class="cls-1" d="M262.65,119.2l-3.54-1.41c-1.66-1.16-3.16-2.72-6.11-2.22a13.62,13.62,0,0,0,5.21,3.07,7.06,7.06,0,0,0,3.35,1.47l4.86,1.55c9.54,3,17.93.38,22.52-7.59-6.2,3.94-11.92,7.47-19,6.81l-7.27-1.68Z"/><path class="cls-1" d="M132.84,58.31c-1.74-.2-.92,1.82-1.36,2.8a16.7,16.7,0,0,0-1.14,3.41,5.52,5.52,0,0,0,2.42,5.91,2.27,2.27,0,0,0,1.83.41c.65-.27.55-1.17.34-1.79-.81-2.43-1.54-4.85-.72-7.18C134.38,60.23,134.33,58.48,132.84,58.31Z"/><path class="cls-1" d="M417.29,51.55c.83-.15.76-1,.86-1.6.45-2.66,1.08-5.19,3-7.32.84-1,.75-2.25-.49-3.66-1.62,1.83-3.19,3.47-4.6,5.23a5.24,5.24,0,0,0-.51,6C415.87,50.94,416.33,51.72,417.29,51.55Z"/><path class="cls-1" d="M455.91,38c2-1.54,4.21-2.75,6.33-4.11a5.72,5.72,0,0,0,4.45-1.82c-1.61.09-3.21.1-4.47,1.17-4.28,1.14-9.48-.39-12.94,4.53C451.74,37.94,453.58,39.81,455.91,38Z"/><path class="cls-1" d="M246,251.38a7.08,7.08,0,0,0-2.77,0c-1.68.47-4.88-1.37-4.8,1.39.07,2.5,3.29.59,4.67,1.23a21.21,21.21,0,0,0,2.69,0c1.17-.17,3.1.75,3.21-1.23S247.12,251.53,246,251.38Z"/><path class="cls-1" d="M321.6,113.9c4.13-1.37,7.85-3.35,10.53-7-4.45,1-7.94,3.85-11.74,6.06a37.56,37.56,0,0,1-13.71,2.35l-4.1-1.4-2.33-1c-.4-.35-.8-.69-1.19-1.05-6.22-5.85-6.21-7.55.1-13.43.19-.18.51-.28.61-.5a1.68,1.68,0,0,0,.19-1c-.6-2.91-3-4.31-6.12-3.43a6.39,6.39,0,0,1-3.14.06,4.63,4.63,0,0,0-5.6,2.76c-1.11,2.45,1.07,3.2,2.45,4.35,3,2.49,6.32,4.86,2.8,9.41-.72.93-.73,2.4-1.12,3.81,4.08-2.12,4.08-2.12,9.23-.15a3.44,3.44,0,0,0,.79.11c.6.79,1.51.77,2.37.88h0a11.69,11.69,0,0,0,5.08,1.33c5.19.81,10.22.57,14.89-2.15Z"/><path class="cls-1" d="M423.94,38.94c1.09,3.51,1.52,7.12,2.34,10.81C428.29,44,427.86,41.77,423.94,38.94Z"/><path class="cls-1" d="M114.4,115.46c-4.1-.59-7.1-2.45-11.35-2.6C106.82,116.36,108.71,116.78,114.4,115.46Z"/><path class="cls-1" d="M517.27,132.38l-8.59-8.75A121.28,121.28,0,0,0,517.27,132.38Z"/><path class="cls-1" d="M395.78,241.08c.07-.29-1.05-1.27-1.33-1.17-1.85.71-2.56,2.46-3.19,4.16-.17.46.29,1,1.2,1C393.62,243.91,395.34,243,395.78,241.08Z"/><path class="cls-1" d="M286.45,243.86c0,.94.43,1.49,1.43,1.47,1.21,0,1.56-.8,1.59-1.79s-.54-1.84-1.75-1.75S286.47,242.94,286.45,243.86Z"/><path class="cls-1" d="M100.57,103.52l6.79,1.28C105.39,102.84,103,102.79,100.57,103.52Z"/><path class="cls-1" d="M393.86,88.66a6.23,6.23,0,0,0-3.4-1.39l-3.93-1.11c-.57-.8-1.49-.63-2.28-.81-1.76-.73-3.48-1.83-5.46-.08l4.55.91,3.16.8,3.13,1c.93.94,2.2,1.06,3.39,1.39L397,91c1,.13,1.83,1.59,3.16.59A3.46,3.46,0,0,0,397,90.31C396.27,89.14,395,88.94,393.86,88.66Z"/><path class="cls-1" d="M13.6,95.3l6.23-6.66C17.16,90.86,15.27,92.19,13.6,95.3Z"/><path class="cls-1" d="M196,121a15.22,15.22,0,0,0,5.06,2.73C200.41,121,198.58,120.36,196,121Z"/><path class="cls-1" d="M529.68,91.17c-1.63-.86-3-2.36-5.13-2C526.07,90.27,527.46,91.67,529.68,91.17Z"/><path class="cls-1" d="M267.21,108.18a6.24,6.24,0,0,0,5,1.88C270.47,108.49,269.19,107.32,267.21,108.18Z"/><path class="cls-1" d="M267.21,108.18l0,0h0l-.06,0s0,.05,0,.09Z"/><path class="cls-1" d="M525.25,108.54c-.8-.7-1.35-2-3.48-1.09,1.47.75,2,2,3.47,1.9h0a8.66,8.66,0,0,0,4.76,3.71C528.8,110.49,526.92,109.63,525.25,108.54Z"/><path class="cls-1" d="M493.67,94.47l-4-.74L484,92.91c-3.36.12-4.17-1.39-3.24-4.53a45.68,45.68,0,0,0,1-6.65l8-.42,5.53.27c1.79.94,3.73.73,5.64.8l6.48,1.42h0c1,.08,1.95,1.34,3.15.33-.78-1.3-2-1-3.13-1.09A17.45,17.45,0,0,0,501,81.62l-5.65-.78-3.86-.28a7.23,7.23,0,0,0-2.28-.49c-3.56.43-6.27-.1-7.14-2.93q-.08-1.54-.28-3.09c-1.35-4,1-10.32-6.5-10.67-.45,0-.94-1.21-1.24-1.93-.56-1.34-1-2.72-1.53-4.2-1.95,2.11-1.42,4,0,5.89a37,37,0,0,1,5.43,9.28c2.43,6.81,1.85,7.76-5.08,8.27-.26,0-.53.09-.79.13-1.19-.13-2.39-.29-3.43.54-1.83-1.93-1.54-4.58-2.29-6.88s-2.61-3.56-4.48-2.85c-2.13.81.17,2.36.38,3.6.41,2.39,2,4.76.07,7.17a16,16,0,0,0-6.61,1.5c2.38,1.35,4.42-.24,6.59-.77,0,.1,0,.2.1.29,2.61,1.88,3.1,5.48,6.34,7-2.53,1.28-5.35-.46-7.18,1.71a9.35,9.35,0,0,0-4.34.26,2.94,2.94,0,0,0-.51-.44c-1.92-1.14-3.87-2.14-6.21-1.48a3.19,3.19,0,0,0-.48.26,7,7,0,0,0-3.7-1.94c-.91,3.1,2.34,1.76,3.19,3a.66.66,0,0,0,.64.21c0,2.44-2.12,1.06-3.08,1.76A16.77,16.77,0,0,0,441.24,95c-1.26.3-2.83-.24-4,1.79l4-.86c2.24-.34,4.54-.44,6.66-1.37l5.44-.24c1,1,2.48,1.74,2.54,3.41,0,.73.31,2.27-1.08,1.61-1.83-.86-3,.81-4.56.63a6.56,6.56,0,0,0-4.19-.59c-2.55-.09-5.12-.77-7.65.81h6.72a7.16,7.16,0,0,0,4.24.57,22.26,22.26,0,0,0,15.13,2.66l.74,1.36h0a56.42,56.42,0,0,1-17.59,7.45c-6,1.31-12.29,3.23-18.5.22-.9-.44-2.27-1.77-3,0-.62,1.52.55,2.52,1.91,3a11.83,11.83,0,0,0,3.1.68c6.74.45,13.66,2.64,19.88-2.09a3.81,3.81,0,0,1,1.94-.44c5.81-.41,10.66-3.2,15.47-6.15.72-.44,1.37-1.33,2.46-.92-2.77,5.44-8.86,11.75-14.54,11.18-3.72-.37-7.21.36-9.65,3.71a2.58,2.58,0,0,1-2.48,1.09c-3.09-.55-5.77.77-8.53,1.72,1.57,2.19,3.69.93,5.61.88,8.14-.58,16.41-.49,23.8-4.8.75-.44,1.56-1.54,2.45-.72,1.08,1,0,2-.57,2.81-3.55,5.37-9,7.51-15,8.18-6.53.72-13.1,1.1-19.65,1.63-1.33.11-3.23.06-3.5,1.33-.36,1.7,1.66,2.16,2.91,2.81,3.34,1.75,7,1.89,10.61,1.61,8.27-.65,16.52-1.93,24.81,0,2.44.58,4.31-.52,5.74-2.71a22.82,22.82,0,0,0,2-22.55c-1.61-3.81-.89-5.57,2.59-5.41,1.2.89,2.44,1.64,4,1.14-.55-1.51-2-1.43-3.23-1.83s-2.85-.7-1.7-2.92a19.19,19.19,0,0,0,1.9-6c.49-3.42,2.18-4.76,5.53-4.09,1.77.9,3.7.83,5.61.88.92.82,2.08.64,3.17.76,1.52,1,3.34.91,5,1.35,1,0,2,1.1,3.42.21a3.24,3.24,0,0,0-2.52-1A10.42,10.42,0,0,0,493.67,94.47Zm-24.64,3c-4.77,3.45-8.39,2.14-11.26-4a31.67,31.67,0,0,0,4.73,0,9,9,0,0,0,2.42.35c1.07,0,2.14-.12,3.2,0s2.37-.21,2.63,1.2C471,96.18,469.89,96.83,469,97.45Zm7.55-9.77c-1,2-2.14,2.28-3.41.22-1-1.57-1.43-3.4-2.34-5a1.85,1.85,0,0,0,2.48-.62l.17.06C477.76,82.63,478.52,84,476.58,87.68Z"/><path class="cls-1" d="M512.34,101.67A7.61,7.61,0,0,0,517,104C516.23,101.7,514.52,101.21,512.34,101.67Z"/><path class="cls-1" d="M512.23,101.69l.11,0,0,0Z"/><path class="cls-1" d="M517,104l0,.08.06-.06Z"/><path class="cls-1" d="M484.77,30.73c.36,2.09-.6,3.91-1.22,5.8-1.39,4.18-3.26,8.22-4.05,12.75,4-1.44,7.74-12.78,6.43-18.67h0c-2.13-2.55-4.94-1.35-7.53-1.38s-5.2.45-7.4,2.23l7.39-1.58C480.51,30.17,482.77,29.5,484.77,30.73Z"/><path class="cls-1" d="M0,104.23a5.4,5.4,0,0,0,4.54-1.68C2.43,102,1.17,102.94,0,104.23Z"/><path class="cls-1" d="M395.69,83.55c1.15,1.13,2.25,2.51,4.92,2.61C398.89,84.51,397.57,83.63,395.69,83.55Z"/><path class="cls-1" d="M449.47,85.36c2,1.44,3.79.42,5.54-.65C453.05,84,451.26,84.64,449.47,85.36Z"/><path class="cls-1" d="M121.11,53.24c-.52-1.81-.37-3.49-1.34-4.95h0A7.8,7.8,0,0,0,115.93,41l3,9C119.35,51.14,119.16,52.63,121.11,53.24Z"/><path class="cls-1" d="M27.54,124.39c2.42-.83,3.59-1.94,4.22-3.69A7.65,7.65,0,0,0,27.54,124.39Z"/><path class="cls-1" d="M490.81,112.65a8.34,8.34,0,0,0,5.28,3.29C494.79,114.15,493.39,113.59,490.81,112.65Z"/><path class="cls-1" d="M18.62,134.12c2.26-1.27,3.13-2.6,4.54-4.84C20.53,130.44,19.63,131.74,18.62,134.12Z"/><path class="cls-1" d="M23.09,86.71c-1.3.39-2.65.73-3.06,2.79C21.79,88.92,22.8,88.25,23.09,86.71Z"/><path class="cls-1" d="M122.28,55.35c-2.35.35.05,1.35-.18,2,2.14.48,1.78-1.54,2.5-2.49,1.07-.48,1.66-1.14.87-2.5A2.57,2.57,0,0,0,124,55h0A3.91,3.91,0,0,1,122.28,55.35Z"/><path class="cls-1" d="M154,96.81,149.9,98l.25,1,4.12-1.1Z"/><path class="cls-1" d="M119,107.74c-.78-1.73-2.29-1.45-3.45-1.85l-3.15-.82c-1.22-.12-2.35-1.4-3.84-.38,1.17,1.18,2.52,1,3.79,1.19.6.76,1.49.63,2.3.75A6,6,0,0,0,119,107.74Z"/><path class="cls-1" d="M481.56,108.56l.09,0,0,0-.1,0s0,0,0,.07Z"/><path class="cls-1" d="M44.77,111.5c-1,.41-2.16.6-2.31,2.11a3.69,3.69,0,0,0,3.11-1.41c.89-.43,2.09-.46,2.56-1.76C46.54,110,45.79,111.12,44.77,111.5Z"/><path class="cls-1" d="M31,93.7c-1.92.37-4,.21-5.38,2.44l6.26-1.66c1.34-.16,2.86.17,4-1.31C34,92.51,32.57,93.6,31,93.7Z"/><path class="cls-1" d="M273,104c.56,2,1.69,2.43,3.52,3.47A4.71,4.71,0,0,0,273,104Z"/><path class="cls-1" d="M5,101.88a3,3,0,0,0,3.53-1C7.2,100.24,6.22,100.66,5,101.88Z"/><path class="cls-1" d="M443.18,88.16c0,.1.83.37,1.27.57l2.72-1.44c.82-.12,1.74,0,2.19-.95a3.33,3.33,0,0,0-3.19.13C445.17,87,443.53,86.51,443.18,88.16Z"/><path class="cls-1" d="M436,91.12c2.12.16,3-.58,4.72-1.37C438.36,89,437.42,89.63,436,91.12Z"/><path class="cls-1" d="M10.33,100.19a8.26,8.26,0,0,0,5.24-1.89A6.34,6.34,0,0,0,10.33,100.19Z"/><path class="cls-1" d="M394.69,10.59c1-1.46,1.1-3.09,1.34-5.52-2,2-2.07,3.75-2.2,5.52,0,1.5-1.18,2.9-.44,4.55C394.55,13.76,394.6,12.17,394.69,10.59Z"/><path class="cls-1" d="M314.64,99.33c1.42-1.15,2.73-1.51,3.27-3.87C316.21,96.65,314.8,97,314.64,99.33Z"/><path class="cls-1" d="M503.2,98.22l5.78,2.11a4.83,4.83,0,0,0,3.23,1.28c-.25-1.89-1.92-1.85-3.23-2.3C507.51,98.75,506.17,97.61,503.2,98.22Z"/><path class="cls-1" d="M512.29,101.63h-.08s0,0,0,.08Z"/><path class="cls-1" d="M327.27,94.66l-2.9,1.61C325.84,96.84,326.89,96.31,327.27,94.66Z"/><path class="cls-1" d="M522.48,88.88a5.32,5.32,0,0,0-4.53-2.73,4.76,4.76,0,0,0-4-1.08c1.06,1.49,2.64,1.37,3.93,1.86Z"/><path class="cls-1" d="M517.14,104.11A4.74,4.74,0,0,0,521,106C519.77,104.45,518.65,103.82,517.14,104.11Z"/><path class="cls-1" d="M517,104.11h.11l-.05-.05Z"/><path class="cls-1" d="M266.66,101.1l3.88,2C270,101.53,269.08,100.62,266.66,101.1Z"/><path class="cls-1" d="M50,109.55c2-.17,3.12-.32,3.84-2A4.17,4.17,0,0,0,50,109.55Z"/><path class="cls-1" d="M484.84,109.75c-.94-.73-1.72-1.9-3.19-1.22C482.29,110,483.4,110.28,484.84,109.75Z"/><path class="cls-1" d="M216.74,133.67c.62,1.07,1.51,1.8,3.59,2.85-1.16-2.12-1.94-3-3.22-3.36C217,133.37,216.7,133.61,216.74,133.67Z"/><path class="cls-1" d="M517.61,134.77c.62,1,.66,2.69,2.57,2.7A2.89,2.89,0,0,0,517.61,134.77Z"/><path class="cls-1" d="M320.43,94.68c1.39-.54,2.45-.72,3-2.5C321.9,92.36,320.93,92.7,320.43,94.68Z"/><path class="cls-1" d="M28.32,83.94A5.09,5.09,0,0,0,32.52,82C30.44,81.85,29.38,82.31,28.32,83.94Z"/><path class="cls-1" d="M325.94,90c-.53.28-1.32.42-1.2,1.26,0,.22.51.37,1,.73.41-.52,1-.94,1.12-1.47C327.07,89.83,326.45,89.73,325.94,90Z"/><path class="cls-1" d="M117.51,98.77a2.44,2.44,0,0,0,2.77,1.6C119.56,99.54,119,98.5,117.51,98.77Z"/><path class="cls-1" d="M27,85c.07-.08-.41-.83-.47-.81-.79.29-1.88.32-1.8,1.64C25.82,86.42,26.44,85.69,27,85Z"/><path class="cls-1" d="M498.22,116.67c-.16-.08-.53.26-.8.41l.67,1.07c1.22.15,1.47-.16,1.24-.54A2.78,2.78,0,0,0,498.22,116.67Z"/><path class="cls-1" d="M502.66,120.27a5.85,5.85,0,0,0,3.84,3.19A5.46,5.46,0,0,0,502.66,120.27Z"/><path class="cls-1" d="M118.64,103.75c-.65-1.26-1.88-1.22-3-1.43a4,4,0,0,0-4.87-1.1l4.86,2C116.63,103.33,117.41,104.56,118.64,103.75Z"/><path class="cls-1" d="M21.32,96.08c-1.7.32-3.54.31-5.11,2.17A8.63,8.63,0,0,0,21.35,97c1.05-.31,2.59.33,3-1.47C23.15,95.1,22.3,95.91,21.32,96.08Z"/><path class="cls-1" d="M335.43,99.19c-.29-1.3-1.41.13-2.19,0-.22,0-.47.15-.71.24L327.69,101c-1,.49-2.52.2-3.19,2.23a8.13,8.13,0,0,0,4.12-1.44,13,13,0,0,0,4.79-1.66C334.18,99.95,335.68,100.34,335.43,99.19Z"/><path class="cls-1" d="M38.92,115h0c-1.18.63-2.58,1-3,2.77a3.76,3.76,0,0,0,3.14-1.7c.79-.36,2.35-.3,1.67-1.68C40.28,113.6,39.43,114.48,38.92,115Z"/><path class="cls-1" d="M402.11,87.15c.74,1.81,1.4,2.42,2.94,2.48C404.55,88.27,403.77,87.81,402.11,87.15Z"/><path class="cls-1" d="M252.25,190c-.75-2.2-2-4.46-4.12-5.27-4.21-1.63-7.31-3.73-7.37-8.76a1.91,1.91,0,0,0-2.29-1.77,2.36,2.36,0,0,0-1.86,2.34,31,31,0,0,0-.18,4.81c.15,2.9-2.76,2.48-4,3.85-.53.58-1.16,1.05-1.92.09-4-5-8.72-4.33-13.8-1.86a11.74,11.74,0,0,0-.35-1.56c-.58-1.55-.54-3.81-3-3.62-2.07.16-2.69,2-3.13,3.73a12.06,12.06,0,0,0-.28,2.79c-.12,6.2,1.16,12.27,1.87,18.39.3,2.55,1.83,3.8,4.53,3.13,1.42-3.63.66-7.42.82-11.14a16.1,16.1,0,0,1,.26-4c1-3.22,5-5.75,7.45-4.74,3.67,1.49,3.13,4.62,2.39,7.53-1.54,6.07-5.45,10.3-10.89,13.21-1,1.45-1.51,3,0,4.3,1.9,1.54,3.91.79,5.5-.58a30.25,30.25,0,0,0,10.17-17.36c.43-2.17,1-3.8,3.26-4,0,4.88.1,9.68,0,14.47-.21,8.58-1.05,17.16.35,25.71.33,2,.89,4,2.68,5.21a2.16,2.16,0,0,0,2.94,0,1.63,1.63,0,0,0-.32-2.73c-1.82-1.28-1.24-3.16-1.17-4.8q.78-17.9,1.76-35.78c.07-1.35-.76-3.45,1-3.9s3.16,1.15,4.22,2.59a4.93,4.93,0,0,1,.94,1.76c1.4,6.5,2.66,13-2.69,18.51-1.12,1.16-1.79,2.44-.47,3.87s2.69,1.07,4,.17a5.64,5.64,0,0,0,1.86-2C254,205.34,254.89,197.8,252.25,190Z"/><path class="cls-1" d="M119.77,114.92c-1.58-.37-3.23-.72-4.77.82C116.89,116.39,118.22,115.14,119.77,114.92Z"/><path class="cls-1" d="M268.46,111.82c-.1-.41-.62-.5-1.16-.51-.7,0-1,.45-.68,1a2,2,0,0,0,1.35.55C268.3,112.86,268.74,112.59,268.46,111.82Z"/><path class="cls-1" d="M453.31,64.85c-4.63-5.9-14.55-2.63-16.85,3.43-1.78,4.7-1.62,5.45,3.2,6.75-1.71-6.66-1.22-8.32,3.26-10.37.34,3.7-3.73,9.52,3.51,10,5.82.36,4.19-4.8,4.32-8.44,3.6,3.48,3.6,5.32.26,9.58.51,0,1.14.14,1.52-.1,2.27-1.45,2.86-4.25,4.63-6.2C457.84,68.73,454.62,66.51,453.31,64.85Z"/><path class="cls-1" d="M405.22,52.57C403,55.25,401,58,402.94,61.49c1.06,1.89,3.06,2.2,5,1.49,4.15-1.54,2.37-5.33,2.75-8.32,4.68,2.36,4.29,7.18-.7,10.9a5.09,5.09,0,0,1-4.35.25,4.53,4.53,0,0,1-.72-.3l-.55.52c2.81,1.39,5.87.3,8.76.87,1.58-.49,1.58-.49,2-3.42,1-6.53-1-11.08-6-12.91-3.61-1.31-7.28-1.12-10,1.82-2.22,2.37-2.93,5.29-.48,8.16C399,54.32,400.34,52.71,405.22,52.57Z"/><path class="cls-1" d="M438.43,194.49c-4.64-2.33-9.34-4.48-14.91-.55a21.94,21.94,0,0,1,.24-2.24c.44-1.79.71-3.74-1.41-4.43s-3,1.19-3.84,2.75a16.26,16.26,0,0,0-1,2.21c-3.29,9.55-2.33,19.35-1.64,29.11.19,2.74,1.92,3.87,4.74,3.6,5.57-.54,10.47-3.33,15.74-4.64,7.3-1.82,10.12-6.53,11.22-13.25.47-2.88,0-5.28-2-7.4A26.22,26.22,0,0,0,438.43,194.49Zm-8.6,22.17-8.15,1.73c-1.31-4,.24-5.85,4.08-6.29,1.05-.12,2.09-.76,3.1-.7s2.85-1.94,3.07.38C432.08,213.42,432.79,216,429.83,216.66Zm2.66-15.58c-.44,1.45.84,3.56-1.19,4.26a36.88,36.88,0,0,1-8.87,2.06c-1,.08-.72-2.16-.27-3.14a20.16,20.16,0,0,1,4.12-5.82c1.42-1.41,3.09-2.28,5-1.55C433.4,197.68,432,199.69,432.48,201.08Zm4.82-1.44c1.61.44,2.76,1,3.48,2.2C437.24,203.79,437.24,203.79,437.31,199.64Zm.11,14.5c-.77-5.5-.77-5.5,5.26-6.7C443.43,211.67,441.28,213.56,437.42,214.14Z"/><path class="cls-1" d="M192.61,167.54c-2.95-2.54-6.22-2-9.42-.51-2.82,1.27-5.1,3.36-7.92,5.65a53.78,53.78,0,0,0-1-5.66c-.34-1.18-.48-2.94-2.3-2.79s-2.38,1.61-2.38,3.2c0,7.09-.22,14.19.78,21.25.32,2.23,1.44,3.84,3.65,4.23,6.6,1.16,13.24,1.71,19.88.28,1.11-.24,2.53-.72,2.35-2.29s-1.65-1.73-2.79-1.78c-2.74-.14-5.49,0-9.14,0,4-4.35,7.26-8,9.08-12.68C194.62,173.32,195.66,170.17,192.61,167.54Zm-2.88,9.16a32.55,32.55,0,0,1-10.23,10.58c-1.08.73-2.35,1.85-3.63,1.18s-.5-2.4-.68-3.49c.2-5.75,4.68-12.07,9.75-13.71,1.65-.54,3.46-1,4.86.59S190.61,175.18,189.73,176.7Z"/><path class="cls-1" d="M399,194.34c-2,.64-3.45,2-5.55,3.38,0-3.61.15-6.79-.06-9.95-.11-1.61-.12-3.78-2.53-4s-3.21,1.81-3.3,3.71a269,269,0,0,0-.32,28.14c.19,3.43,2.4,4.5,5.7,3.16a27.05,27.05,0,0,0,7.67-5.08c3.31-2.94,6.6-5.89,7.87-10.42.82-2.93.7-5.67-1.55-7.83S401.9,193.4,399,194.34Zm4,7.76c-1.07,3.34-5.33,7.69-9.86,9.82-.16-4.36,4-11.4,7.55-13,.77-.35,1.46-.7,2.1.15A3.06,3.06,0,0,1,403,202.09Z"/><path class="cls-1" d="M271.18,182a9.49,9.49,0,0,0-5.49,2.21c-1.59,1.56-2.24,1.18-3-.69-.58-1.44-1.75-2.51-3.48-2s-1.67,2-1.63,3.32c.19,6.69.42,13.39.75,20.07a4.16,4.16,0,0,0,3.91,4.32,18,18,0,0,0,20.27-17.47C282.56,183.73,279.15,180.84,271.18,182Zm-3.67,22.21c-2.36.3-3.6.23-3.21-3,.58-4.89.15-9.91,4.72-13.37,1.86-1.41,3.74-2.13,5.92-1.13s2.82,3,2.72,5.34C277.52,198.2,273,203.52,267.51,204.22Z"/><path class="cls-1" d="M308.23,184.45c1.05-3.95,1.95-8.33-1.83-11.16s-7.33-.27-10.56,2c-.69-1.78-1.25-3.53-2-5.18a2.12,2.12,0,0,0-2.73-1.08,1.93,1.93,0,0,0-1.47,2.11c.29,8.7-.11,17.45,1.47,26.06.74,4,2.95,4.71,6.42,2.33A26,26,0,0,0,308.23,184.45Zm-8.5-5.62c.91-.78,1.77-1.92,3.09-1.31s1.41,1.9,1.36,3.11c-.25,5.38-3.29,9-7.78,12.17C295.94,187.44,295.37,182.56,299.73,178.83Z"/><path class="cls-1" d="M417.82,29c-.61,1-1.31,2.06-.28,3,.34.31.87-.7,1.09-1.3,1.48-1.84,3.16-3.3,5.76-2.64,3.26.83.12,3.49,1.43,5.12.59-.28,1.19-.51,1.74-.83,3.66-2.14,4.94-1.46,5.19,2.64a34.43,34.43,0,0,0,.68,3.9c-4.44,4.42-3.55,10.59-6.25,16.62,3.29-1.73,3-4.58,4.72-6,1.08.8.05,2.4,1.28,3.07,1.54.23,1.53.23,2.55-1.16,4.29-5.91,9.17-11.4,12.55-18.47-12.07-1.4-24.07-3.77-32.46-14.36a26.66,26.66,0,0,0,1.4,5.29A14.22,14.22,0,0,1,417.82,29Zm17.65,14.87c.28-1.32,1-2.71.76-4-.48-3.21.8-4.85,3.85-5.34,1.18-.19,2.41-2.09,3.44-.53.87,1.31-.12,2.9-1.18,4-3.65,3.67-5.76,8.34-8.36,12.69-.53-3.69-1.28-7.38.07-11.06C434.28,41,435.22,42.26,435.47,43.83Z"/><path class="cls-1" d="M231.1,247.05c-2.47-.59-5,.7-7.6.21-1.09-.2-1.55.83-.71,2.24,1.9,3.17,2,7.92.47,9.9-3.87,4.93.31,3.16,1.57,3.46a17.36,17.36,0,0,0,3.43,0c1.53-.37,1.6-1.59.42-2.2s-2.54-.57-1.92-2.24,1.83-.21,2.74-.25c3.11-.16,5.1-1.54,5.59-4.66S234.34,247.83,231.1,247.05Zm-1.89,8.55c-2-.27-2.6-1.59-2.52-3.37s1-2.87,2.69-2.79c1.94.09,2.65,1.55,2.54,3.34A2.67,2.67,0,0,1,229.21,255.61Z"/><path class="cls-1" d="M259.9,244.13c-.8-.06-1.61-.08-2-.1-.82,0-1.22,0-1.62,0-2.23.1-4.91-.7-2.75,3.51,1.07,2.08.83,5.27-.19,7.82-.4,1-1.49,2.17,0,2.54,1.82.44,3.95.9,5.71-.45.2-.15.05-1.06-.2-1.43-1.71-2.41-1.73-2.38,1.35-2.94,2.62-.47,4.6-1.66,4.52-4.68S262.6,244.31,259.9,244.13Zm-1.48,6.38c-1.5.22-1.72-.73-1.76-2s.41-2,1.69-1.84c1.38,0,2.77.18,2.87,1.68C261.34,250.2,259.73,250.32,258.42,250.51Z"/><path class="cls-1" d="M366.66,249.57c-1.22-3.46-4.12-3-6.7-2.58-1.36.2-4,.2-2.49,3.09a2.86,2.86,0,0,1,.4,0c1.95.13,5-2.6,5.51.16.39,2.12-3.43.32-5.13,1.27h0c-1.67,1.1-3,2.43-2.18,4.61a3.64,3.64,0,0,0,4.19,2.35c2.16-.25,4.24-1.05,6.5-.36.83.26,1.92-.75,1.42-1.3C366.21,254.59,367.48,251.88,366.66,249.57ZM361.33,256c-.9.14-2.07-.08-2.08-1.24,0-1.66,1.45-1.54,2.48-1.74.94.17,2.17-.25,2.17,1.18C363.92,255.92,362.42,255.86,361.33,256Z"/><path class="cls-1" d="M272.9,246.83c-3.64.14-6.34,2.68-6.3,5.91s3.08,5.89,6.85,5.76,6.29-2.59,6.24-5.9S276.71,246.68,272.9,246.83Zm.48,9a2.86,2.86,0,0,1-3.3-3.15,2.93,2.93,0,0,1,3.29-3.22,2.89,2.89,0,0,1,2.88,3.21C276.2,254.52,275.34,255.73,273.38,255.81Z"/><path class="cls-1" d="M213.86,246.83c-3.69.07-6.33,2.47-6.36,5.77,0,3.5,2.72,5.95,6.63,5.89s6.31-2.37,6.35-5.74S217.71,246.76,213.86,246.83Zm0,9c-2.05-.22-3.17-1.39-3.06-3.43a3,3,0,0,1,3.46-3,2.92,2.92,0,0,1,2.86,3.22C217.11,254.71,216,255.78,213.89,255.87Z"/><path class="cls-1" d="M391.38,253.36c2.1-.19,4.22-.22,6.33-.31-.3-4-2.19-6.21-5.74-6.2-3.21,0-5.84,1.17-6.51,4.7-.61,3.23.79,5.47,3.88,6.55,3.51,1.23,6.81,0,8.32-3-2.2-1-4,1.23-6.13.78-1.06-.22-2.44-.33-2.5-1.52C388.94,252.69,390.51,253.44,391.38,253.36Zm-2.6-2.08c2.16-2.83,3-2.86,5.81,0Z"/><path class="cls-1" d="M211.9,128.43c.21-1.32,1.72-2.72,2.88-2,3.89,2.55,8.48,2.27,12.63,3.63,2.35.77,4.58,1.76,2.65,5,4.17-.15,7.82-1.35,11.35,1.13.64.45,3.4,1.88,3.82.84,1.26-3.11,4.68-5.46,2.86-9.86-1.42-3.42-1.82-6.79-6.34-2.94-.52-1.84,1.64-2.92,1.14-3.44-2.28-2.34.25-2.31,1.24-3.22,2.91-2.67,5.4-5.93,9.82-6.29.42,0,.77-1,1.15-1.55,2.26-.57,4.22.92,6.4.91a5.43,5.43,0,0,0,4.68.77,9.09,9.09,0,0,0-4.66-1.67c-.87-.39-2-.4-2.27-1.64,1.83.32,1.58-2.15,3.06-2.3a11.41,11.41,0,0,0,4.8,2.27c0-2.47-3.73-1.44-3.66-3.93h0c1.15-1.37.18-4.08,2.83-4.51-1.1-3.58,2.05-5.09,4-6.39,3.32-2.27,3-3.76,0-5.65,3.57-2.09,3.57-2.09,5.47.56a3.25,3.25,0,0,0,3.15,1.39c1.56-.15,6-8.57,5.26-10a15.55,15.55,0,0,0-.89-1.34c-1.09-1.69-2.11-3.42-3.27-5.06-2-2.86-1.75-5,1.45-6.92a10.72,10.72,0,0,0,5.42-9.69c.06-3.42.43-6.84.66-10.27,3,7.29,7.32,13,15.57,14.68-.28,1.16-2.3,2.15-1,3.36,1,.89,2.52.14,3.82-.27,1.82-.58,3.39-2.07,5.81-1.73-2.22,2.93-6,3.73-7.35,7.36-1.07,3-1.24,6.15-2.81,9-.8,1.45-2.25,3.65-.58,5.18,2,1.79,2.35-2.08,4.17-1.71a14.08,14.08,0,0,0,5.9-.38,2.41,2.41,0,0,0,.67-.23c6.55,0,11.22-5.29,18.28-6.54l-6.33,5.22a30.31,30.31,0,0,0,10.53,3c.64.09,2.73-.63,1.69,1.57a9.76,9.76,0,0,0-4.21,2.19c-.93.4-2.16.45-2.44,1.92,1.48.14,2.27-.82,3.27-1.25a11.88,11.88,0,0,0,4.15-2.18c3.22-2.26,5.07,1.77,7.82,1.69-.53,2.14-3,.89-4,2.22a3.86,3.86,0,0,0-3,1.1,4.18,4.18,0,0,0-4.06,1.56c-1.69-.08-3,.53-4.49,2.32,2.24-.24,3.52-.63,4.42-1.85h0c1.55-.07,3.09-.14,4.06-1.65,1.47.46,2.64-.57,4-.79,1.63-.47,3.43-.27,4.92-1.29,2.74.33,4.74,1.54,5.3,4.56-1.35.7-4.49-.91-3.7,2.69L342.2,97c-1.87.49-4,.15-6,2.28,2.78-.34,4.93-.56,6.92-1.56,1.6-.08,3.24,0,4.7-.86A17.07,17.07,0,0,1,355.16,98c-.55.7-1.66,0-1.93.89,1.87,1.92,4.89,2.35,6.65,5.14-2.94-.17-5.19-1.76-8-1.44,3,7.75,12.9,5.19,17,11.9l-7.25-.86c-1.51-.83-3-1.59-5-1.15.76,1.61,2,1.85,3.27,2,2,.84,4,1.79,6.32,1.7,2.84,1.47,6,.09,8.88,1,4.25,3.42,9.3,4.66,14.56,4.66,3.35,0,8,1.49,8.14-4.61,2.94-.58.9-1.66.29-2.65-.42-.67-1.65-.95-1-2.13.86-1.65.8-1.75-.34-2.43s-3-.22-3.78-1.83c2-.88,3.72.68,5.62.63,1.5.32,3.65,1.07,4.11-.66s-2.09-1.71-3.27-2.51a2.21,2.21,0,0,0-.75-.17c-5.45-4.76-10.86-9.57-17-13.4-1.83-2-3.75-4-4.94-6.53,1.9-1.94-1.88-3-.74-4.85,2.93-.9,5.67-.1,8.36,1,1.29.51,2.52,1.19,3-.86.57-.13,1.58.11,1.5-.75-.13-1.31-1.51-1.13-2.4-1.51a1.46,1.46,0,0,1-.72-1.7c.74-3.3,2.21-3.65,7.06-1.68,2.41,1.91,5.23,2.38,8.52,2.64-1.68-3.06-4.62-3.17-7-4.27-.12-2.56-2.14-2.25-3.79-2.51l-.06,0c-1-1.95-2.83-2.34-4.77-2.51a5.32,5.32,0,0,0-3.17-1.59,8.49,8.49,0,0,0-4.11-1.48l-1.73-.89h0a1.19,1.19,0,0,0,.32-.72c4.43-2.59,9.59-4.14,12.53-8.87.38-.61,1.32-.86,2-1.32s2.22,0,1.62-1.63a1.9,1.9,0,0,0-2.69-1A12.77,12.77,0,0,0,387,53c-3.71,3.06-7.34,6.21-11,9.33-2.11,1.17-2.64.13-2.52-1.81C378.1,53.84,385,49.14,390.24,42c-3.45.26-5.13,2-6.8,3.69-3.3,3.31-6.53,6.7-9.79,10.05h0c-.44.87-.55,2-2.09,2.22.39-1.18.19-2.36,1.06-3.27h0l.26-2.11h0c.67-.78,1.5-1.95.55-2.55-.79-.5-1.17.87-1.4,1.68-1.82,3.26-3.34,6.61-3.32,10.44-.95,1.44-2.38.82-3.65.84l-11.6.09c-1.24-.08-2.5-.34-3.61.51h0c.18-1.71,1.89-1.22,3-1.79-2.75-1.38-5.62-.88-8.63-1.52l2.52-3.42c-2.4-1.28-3.09,2.22-5.51,1.36.76-3.42-1.56-7.42,2.19-10.37-4.88-1.11-8.62-7.28-7.19-12.14A46.76,46.76,0,0,0,337.2,15c-.72-4.52-2.08-5-6.31-3.42-5.84,2.24-10.58,6.41-16.73,8.4-4.85,1.58-10,3.38-14.42,6.52s-9.66,2.26-14.69,2.35c-9.18.16-18.43,4.25-27.52-.53-.11-.06-.28,0-.39-.07-3.77-2.15-8.71-.91-12.09-4-3.05-2.76-6.74-3.61-10.55-4.52s-5.72.46-6.87,4a69.93,69.93,0,0,0-3,20.61c-.11,8.48-1.07,16.94-4.24,24.83-2.35,5.84-4.7,11.66-6.55,17.68-.41,1.33-.52,2.92-2.1,4-.1-.65-.16-1.11-.25-1.56-1.58-7.72-1.59-16-5.87-22.82A45.39,45.39,0,0,1,198.32,46a36.33,36.33,0,0,0-7.4,6.8c-1.66,1.92-1.33,3.16,1,4.25,2.62,1.21,5.55,2,7.56,4.92-3,1-5.81,2.23-4.79,6.71-5.22-3.77-9.93-6.91-16-5.71,0,3.53,3.94,2.44,5.3,4.69a14.74,14.74,0,0,0-6.73.69c-4.12,1.62-8.34,3-12.51,4.46-3,1.07-6.35,1.28-9.2,2.87-4,2.2-3.94,2.25-5.67-2.07a.91.91,0,0,0-.23-.14h.11c.92-1.63,2.47-1.69,4.11-1.86A46.16,46.16,0,0,0,176.7,63c-5.33-.05-10.68-.4-16-.08-6.3.38-10.48,4.37-11.87,10.48-1.73,5.91.51,8.88,6.66,9.83,4.23.66,8.26-.12,12.36-.58,8.93-1,17.75-2.95,26.77-2.94,1.05,0,2.83-.61,3,1,.15,1.36-1.58,1.58-2.65,2a4.17,4.17,0,0,1-1.57.3c-11.66,0-22.6,4.43-34.07,5.57-1.11.11-2.4,0-3,1.33,2.79,3.2,6.16,2.59,9.61,1.66,9.08-2.44,18.29-2.55,27.55-1.4,1.26.16,3.21,0,3.19,1.59,0,1.82-1.8,2.45-3.57,2.45-3.79,0-7.43,1-11.13,1.59h0c-1.81-1-3.8-.72-5.73-.8a20.31,20.31,0,0,0-10,0l-3.84.29c-2.41.26-4.88.25-7.88,2a22.89,22.89,0,0,0,7.92-1.23l5.55-.25h6.56c.94.47,2.3-.47,3,.89-1.69.12-3.34.24-4.7,1.5-1,1-3.68.79-2.3,3.4a1.16,1.16,0,0,0,1.69.06c-.42.62-1.22.2-1.76.56,0,0,0,.09-.07.13-.4-.46-1.12-.24-1.55-.63h-2.44a41.35,41.35,0,0,0-14.17.78h13.29a9.85,9.85,0,0,0,5,.58c.49.29,1.35-.15,1.57.89-4.57-.19-8.13,2.48-12.08,4-1.19-1-2.62-.86-4-.88-.76-.48-2-1.24-2.22-.12s1.29.93,2.2.91c1.08.57,2.74.06,3.23,1.73a3.53,3.53,0,0,0-2,2.87c-.84,7.35-6,9.44-12.25,10.31a56.48,56.48,0,0,1-7.19.68c-5.93.06-11.66,2.49-17.65,1.5-1.43-.23-4.72,2.93-3.88-2.08.13-.8-1.49,0-2.22.46-4.47.66-8.79-.92-13.22-.9-1,0-2.8.07-3-.44-1.5-3.24-3.95-1.6-6.12-1.51-1.48.06-3,0-5,0,2.26-2,5-1.63,6.77-3.44-4.73-.93-9.38-1.45-13.34-5.45a114.39,114.39,0,0,0,14.85-1.79c2.61-.4,1.34-2.19,1.6-3.12.57-2-1.34-.94-2-.91-4.08.2-8.15.57-12.75.93,3.49-5.51,8.39-4.23,12.91-4.25,1.19.56,2.37,1.08,3.91-.21a6,6,0,0,0-3.9-.61l-2.34-.24c-.35-.38-1.81-.16-.73-1.33,5-1.33,10-2.83,15.17-.92a1.63,1.63,0,0,0,2.49.35,3.74,3.74,0,0,0-2.48-1.07c1.05-2.93,2.73-4.19,5.66-2.11.64.53,1.63,1.56,2,.37s-1.16-1.27-2.11-1.46h0c-.6-3.37-2.86-3.71-5.73-3.36-1,.12-2-.52-3-.81,1.3,2.06-.6,1.48-1.45,1.74a47.39,47.39,0,0,1-6.5,1.58c-.34.11-.7.14-1.05.22a8,8,0,0,0-3.11-.47c-.93-.92-2.11-.71-3.24-.73-.73-.82-1.88-.55-2.82-.84C89.7,91,94,89.44,98.82,90.15a1.86,1.86,0,0,0,.64-.45v.1c.88.43,1.55,1.85,2.78.56l-1.1-1L99.79,89c.35-.86,1.65-.26,2.13-.93,4.08-.58,8.24-.55,12.23-1.79a5.29,5.29,0,0,0,2.5-8.6c-1.05,1.09-.71,2.52-.91,3.8-.28,1.83-1.58,2.57-2.74,1.37-3.76-3.9-8.63-3.22-13.18-3.45-4.23-.22-8.85-3.25-12.7,1.56-.66.82-3.81.86-4.63.06-1.42-1.38-.17-3.53.55-5.22a21.87,21.87,0,0,1,2.15-3.29c-1.91-1-3.09,0-3.86,1.17a31.76,31.76,0,0,0-2.16,4.73c-1.34,3.18-3.09,3.27-5.23.75,2.66-7.87,7.39-14.36,13.25-20.08-4.59-2-10.29-.72-10.94,2.7s-2.82,5.3-5.37,7.09c-1.34.94-3.09,1.5-3.34,3.56,5.7-1.34,6.45-.66,5.67,5.08-.07.53-.09,1.06-.14,1.59-.34.82-1.13.62-1.77.76-2.3-1.1-4.8-1.15-7.27-1.42L61,78.15a31.08,31.08,0,0,0-14,0l-3.05.33-4,.73a10.43,10.43,0,0,0-5.16,1.7,6.76,6.76,0,0,0,5.19-.79c1.36-.21,2.82.05,4-.87l5.5-.28-.74-.24a1.21,1.21,0,0,1,.74.24h9.86l4.72.24c2.33,1,4.86.95,7.3,1.39,1.88,2.12-.16,3.44-1.25,4.51a80.18,80.18,0,0,1-6.76,5.42c-4.11-.12-8.23-.58-12.28.55l-3.85.22a32.21,32.21,0,0,0-9.55,1.36l.13,1L48,92.07l4.61-.27L62.4,92c0,3.6-.33,7.23,1.5,10.59a1.12,1.12,0,0,1-.65,1.63l-5.62,1.6c-1.08.49-2.61.22-3.27,2a5.86,5.86,0,0,0,4.19-1.16A11.61,11.61,0,0,0,63.25,105c.5.1,1.33.06,1.44.31,1.9,4.64,5.74,7.62,9.21,10.93.8.77,2.17,1.8,1.06,3-2.38,2.6.15,2.61,1.46,2.7,7.09.5,13.75,4.94,21.18,2.35.35-.12,1-.13,1.15.07,2,2.66,4.49,1.24,6.82.82,1.46-.26,2.87-.63,4.32,0a3,3,0,0,0,2.66,1.5c16.14,1.37,32.14,1.34,47.88-3.38,10.34-3.1,21-3.85,31.79-3.84,2.86.89,5.53-.56,8.3-.75,4.2-.29,4.79.22,4.08,4.3-.11.66-.42,1.27-.49,1.95.24.93,1.74,1,1.59,2.13-.7,5.66,1,6.08,5.27,2.78C211.74,129.31,211.76,129.3,211.9,128.43Zm160.18-59a1.3,1.3,0,0,1,.81-1.44l1.55-1.72,3.92.2,3.33,1.13,4,1.63,3.08,1.52a9.26,9.26,0,0,0-7.27,3.67c-.84,1.08-1.7,1.63-3,1.26-1.65.39-2.87-.47-4.07-1.38C372.25,73.34,371.72,71.6,372.08,69.45Zm-18.63-5.57c3.48,0,7-.05,10.44.15,1.35.08,3.29-.42,3.93,1.17.8,2-1,3.1-2.3,4.21-5.58,1.37-10.49.41-14.41-4.08C351.34,64,352.87,64.68,353.45,63.88ZM309.73,72a1.25,1.25,0,0,1,1.5,1.09c.12.78-.47,1.19-1.18,1.24a1,1,0,0,1-1.1-.88C308.86,72.71,309.07,72.15,309.73,72Zm6.39-.37c.8,2.57.6,5.58-2.06,7.55a4.59,4.59,0,0,1-3.39,1.42,3.46,3.46,0,0,1-.72.24l-3.33.07c-4.73-1.3-2-3.62-.78-5.73,1,1.44,1.23,3.52,3.27,4.15a6.82,6.82,0,0,0,4-1c1.82-3.44.9-6.08-2.35-8C312.73,70.21,315.42,69.39,316.12,71.61Zm-49.86,5.74c.77,0,1.16.48,1.06,1.29s-.55,1.24-1.37,1-1.19-.76-.87-1.48A1.62,1.62,0,0,1,266.25,77.35Zm-4-1.59c1.06-.81,2.12-1.36,3.15.06l-2.18.91c-.9,3.28.25,5.69,3.12,7.37,4.43-.19,4.82-.86,3.87-6.67,2.39.64,4.75,1.46,4.24,4.59-.44,2.68-3.56,3.58-8.11,2.57-2.59.15-4.22-1.42-5.61-3.27C258.94,78.87,258.45,76.7,262.28,75.76ZM73.56,83.09c0-1,.16-2,1.64-1.54.67.19,1.8.09,1.43,1.31a2.45,2.45,0,0,1-2.14,1.62C73.56,84.6,73.55,83.75,73.56,83.09Zm.75,17.58c-1.22-2.42,2.46-3.85,4.39-5.35a29.41,29.41,0,0,1,3.08-1.86c2.09-.67,4.07.28,6.09.46,1.12.6,2.44.38,3.59.84.65.23,1.88-.25,1.52,1.23-4.06,1-7.64,3.11-11.45,4.68C79.17,101.64,75.55,103.13,74.31,100.67Z"/></svg>