<svg id="圖層_1" data-name="圖層 1" xmlns="http://www.w3.org/2000/svg" viewBox="0 0 41 40"><defs><style>.cls-1{fill:#c6b089;}</style></defs><title>cat-sub</title><path class="cls-1" d="M37.18,29.49c-.8-3.62-2.54-6.57-6.22-8a4.38,4.38,0,0,0-1.05-.12,1.18,1.18,0,0,0,0,.27,5.14,5.14,0,0,0,.35.86c1,1.59,2,3.15,2.94,4.77a9,9,0,0,1,1.24,5,4.48,4.48,0,0,1-2.79,4.19,3.54,3.54,0,0,1-2.26.19c.06-.23.1-.44.16-.63a15.76,15.76,0,0,0,.54-7.63,17.68,17.68,0,0,0-6-10,6.68,6.68,0,0,0-3.87-1.66,1.1,1.1,0,0,1-.88-.51q-1.23-1.92-2.43-3.85a.87.87,0,0,1,0-1,5.08,5.08,0,0,0,.71-3.72c-.26-1.84-.54-3.67-.82-5.51A5.15,5.15,0,0,0,16.08,0c-.7.95-1.41,1.85-2,2.81a1.53,1.53,0,0,1-1.57.76c-1.2-.09-2.4-.12-3.61-.15-1,0-1.07-.07-1.42-1C7.17,1.7,6.87,1,6.56.21L4,6.74a4.55,4.55,0,0,0,1.16,5.37,1.85,1.85,0,0,1,.59,1.29c.06,1.29.1,2.59.17,3.88a16.09,16.09,0,0,0,.19,2A12.37,12.37,0,0,0,8.5,24.44c.22.29.44.58.68.87a13.37,13.37,0,0,1,2.06,3.41,52.63,52.63,0,0,1,2,6.87,1.39,1.39,0,0,1-.84,1.75,2.45,2.45,0,0,0-1.13,1.08c-.42.71-.32,1,.47,1.28a1,1,0,0,0,.3.07c2,0,3.95,0,5.92,0s3.87-.1,5.8-.09a23.43,23.43,0,0,1,2.56.29H33a.39.39,0,0,1,.1-.06,5,5,0,0,0,3.62-3.53A12.86,12.86,0,0,0,37.18,29.49Z"/></svg>