<svg id="圖層_1" data-name="圖層 1" xmlns="http://www.w3.org/2000/svg" viewBox="0 0 176.67 89.33"><defs><style>.cls-1{fill:#654b34;}</style></defs><title>LOGO</title><path class="cls-1" d="M98.88,26.2a1,1,0,0,0,.26,1.33.53.53,0,0,1,0,.06.63.63,0,0,1,1,0,.44.44,0,0,1,.15-.19l.25-.13a1.81,1.81,0,0,1-.56,0A1.3,1.3,0,0,1,98.88,26.2Z"/><path class="cls-1" d="M101.52,26.42c.56-1,.47-1.55-.32-1.74C101.78,25.12,101.87,25.63,101.52,26.42Z"/><path class="cls-1" d="M31.12,32.19a.69.69,0,0,1-.24-.08c-.33-.14-.74.2-1-.16l-1.61-.26a3.11,3.11,0,0,0-.35.21,16.45,16.45,0,0,0-1.65,1.18c-.16.14-.34.3-.27.53s.39.28.63.26a5.49,5.49,0,0,0,2-.66A11.29,11.29,0,0,1,31.12,32.19Z"/><path class="cls-1" d="M115.36,73.65c.68,0,.85-.71,1-1.33a22.75,22.75,0,0,0,.16-4.33,1.08,1.08,0,0,1,.72-1.15,30.21,30.21,0,0,0,3.37-2.05c.63-.43,1.82-1,1.38-1.7-.56-.9-1.49,0-2.18.44a12.27,12.27,0,0,1-3.31,1.76c-.06-1.08-.1-2.1-.2-3.11a.84.84,0,0,1,.74-1.06,32.6,32.6,0,0,1,3.81-1c.33,0,.72-.13.65-.61s-.37-.51-.75-.53a14.2,14.2,0,0,0-2.53.27c-2.13.27-2.12.25-2.17-1.93,0-.66.14-.88.83-.88a29.93,29.93,0,0,0,3.05-.22c.58-.06,1.37-.09,1.31-.86s-.78-.66-1.35-.67c-1,0-2-.07-2.94,0-.8,0-1-.27-1-1a6.23,6.23,0,0,0-.13-2.28c-.28-.78-.77-1.09-1.37-.33a21.43,21.43,0,0,0-1.81,2.62,65.47,65.47,0,0,1-5.19,8.18c-.24.3-.37.75-.78.83,0-1.66,0-3.28,0-4.89,0-.74.22-1.21,1-1.29.34,0,.73-.16.74-.57s-.42-.55-.73-.56c-.94,0-.91-.63-.86-1.3.09-1.23.18-2.46.21-3.69,0-.49,0-1.15-.66-1.18s-1,.48-1.07,1.07a21.62,21.62,0,0,0-.26,3c0,1.27-.19,2.06-1.78,2-.74,0-2.14-.07-2,1.17s1.34.7,2.14.78c.41,0,.88-.23,1.23.06s-.19,2.81-.85,3a7.93,7.93,0,0,0-2.85,1.38c-.38.3-.93.65-.53,1.25s.91.26,1.35,0a12.27,12.27,0,0,1,2.63-1.47,6.33,6.33,0,0,1-2,6.66,4.83,4.83,0,0,0-.75,1c-.23.36-.48.77-.1,1.16s.91.2,1.26-.11c.58-.52,1.09-1.12,1.73-1.8.11,2.27.19,4.36.34,6.43,0,.66.16,1.56,1,1.5s.66-.95.66-1.54q0-4.09-.08-8.18a2.83,2.83,0,0,1,.59-1.88A82.71,82.71,0,0,0,113,55.63c.3-.53.64-1.05,1-1.58l.42.07c0,4.15,0,8.3,0,12.46,0,1.87,0,3.75.08,5.62C114.48,72.82,114.54,73.65,115.36,73.65Z"/><path class="cls-1" d="M48.36,64.83a11,11,0,0,0-.87-3.57c-.19-.38-.46-.82-1-.66s-.4.64-.34,1c.17,1.13.36,2.26.58,3.39.35,1.74.36,1.7-1.44,1.94-.73.1-1,0-.9-.82.06-.51.3-1.33-.3-1.47-.78-.19-.87.75-1.18,1.26a1.57,1.57,0,0,0-.22.6c-.09.71-.5,1-1.19,1-1.52.18-3,.41-4.53.68-.55.1-1.1.36-1,1.08s.75.67,1.27.69a33.23,33.23,0,0,0,4.62-.63c-.25.71-.46,1.31-.66,1.9a49.68,49.68,0,0,1-2.06,5.07c-.17.37-.3.84.18,1.14s.82,0,1.11-.33a7.52,7.52,0,0,0,1.35-2.3c.54-1.26,1-2.54,1.58-3.95a39.19,39.19,0,0,0,3.75,4.21c.45.39,1.05,1.09,1.6.54s-.2-1.08-.54-1.53A30.12,30.12,0,0,0,44.36,70c-.36-.34-.81-.86-.28-1.12A19.05,19.05,0,0,1,47,68c.61-.19.52.4.76.62s.6.13.62-.1c.09-1.1,1.17-1.32,1.86-2.2C48.47,67,48.49,65.84,48.36,64.83Z"/><path class="cls-1" d="M145.29,52.24c-1.33.07-1.85-.48-1.82-1.79a.86.86,0,0,0-.94-.86c-.56,0-.76.48-.81,1a2.65,2.65,0,0,0-.05.63c.11.72-.25.85-.88.83-1.11,0-2.21,0-3.32,0-.54,0-.89-.07-.9-.74s-.08-1.19-.86-1.16a1,1,0,0,0-1,1.11c0,.85-.49.81-1.07.82-1.23,0-2.47.07-3.7.17-.54,0-1.18.17-1.26.86a1.72,1.72,0,0,0,.82,1.75c.42.24,1.07.7,1.13-.39,0-.57.48-.78,1-.81.68,0,1.36,0,2-.09s1,.21,1,1c-.06,1.19,0,2.38,0,3.57a1.25,1.25,0,0,0,1,1.3,1.37,1.37,0,0,0,1.36-.52c.26-.34.46-.9-.27-.8s-.7-.33-.68-.73c0-1,.13-2,.18-3.06,0-.6.36-.76.93-.74,1.19.05,2.39.09,3.58,0,.8,0,.88.32.83,1a12.51,12.51,0,0,1-1.53,5.22c-.25.45-.72.87-.51,1.58a2.83,2.83,0,0,0,1.7-1.41,11.06,11.06,0,0,0,1.67-4.51c.22-1.36.72-1.92,2.12-1.63.51.11,1.22.12,1.31-.63S145.82,52.21,145.29,52.24Z"/><path class="cls-1" d="M50,49a7.61,7.61,0,0,0-3.16-.18c-.66.06-.8-.12-.7-.75a5.44,5.44,0,0,0-.14-2.4c-.22-.75-.68-1.26-1.46-1.13s-.94.91-.82,1.61.36,1.66.56,2.49c.09.39.22.75-.34.91a28.42,28.42,0,0,0-4.37,1.87c-.11-.81-.17-1.53-.31-2.23-.09-.46-.29-.93-.89-.92s-.81.46-.85.94a22.5,22.5,0,0,0-.08,6c.09.52,0,1.25.78,1.27s1-.74,1-1.28A2.46,2.46,0,0,1,40.61,53c.71-.46,1.42-.94,2.17-1.33a10.08,10.08,0,0,1,4.88-1.28c1.72,0,2.09.66,1.26,2.14a20,20,0,0,1-1.5,2.05c-.15.2-.36.42-.13.67s.39,0,.58-.06a6.19,6.19,0,0,0,3.25-4.73A1.44,1.44,0,0,0,50,49Z"/><path class="cls-1" d="M64.45,76c.46-.49-.2-.91-.49-1.26a15.91,15.91,0,0,0-4.3-4.11,20.18,20.18,0,0,0,4.44-1.89c.55-.38,1.59-.78,1.14-1.55s-1.22,0-1.82.31a6.57,6.57,0,0,1-3,1,15.05,15.05,0,0,0,.85-3c0-.35.21-.84-.28-1s-.59.27-.79.53a9.4,9.4,0,0,0-1.58,3,2,2,0,0,1-2.19,1.48,7.73,7.73,0,0,0-2.65.29c-.36.15-.75.35-.67.81s.47.46.81.47c1.06,0,2.12,0,3.37,0-.78,1.75-1.56,3.39-2.23,5.07-.36.92-1.47,2.28-.39,2.78s1.41-1.27,1.89-2.14c.82-1.51,1.5-3.09,2.26-4.71.33.27.56.45.78.64,1.12,1,2.21,2,3.36,2.94C63.39,76,64,76.46,64.45,76Z"/><path class="cls-1" d="M40.75,30.88c-.43.76,0,.7.41.89s1.39,0,1.4.64c0,1.26,1.26,1.66,1.46,2.84.45-1.59,1.64-2.36,2.61-3.31.56-.55,1.57-.79.32-1.91A4.09,4.09,0,0,0,40.75,30.88Z"/><path class="cls-1" d="M66,49.12a17,17,0,0,0-3.17-.1c-1.13.09-1.81,0-1.37-1.41a3.84,3.84,0,0,0,0-1c0-.31,0-.63-.35-.75a.79.79,0,0,0-.9.31,2.67,2.67,0,0,0-.58,1.25,15,15,0,0,0,0,5.56c.06.41.06,1,.57,1s.61-.62.68-1.05c.37-2.14.36-2.14,2.61-2.12h.51v0c.59,0,1.19,0,1.78,0s1.18.24,1.27-.6S66.61,49.19,66,49.12Z"/><path class="cls-1" d="M42.62,53.92c-.49-.15-.75.34-1,.68a34.9,34.9,0,0,0-4.12,8.16c-.13.41-.51.92.12,1.22s.86-.24,1.11-.6a34.94,34.94,0,0,0,3.89-7c.16-.43.25-.89.36-1.27C42.92,54.63,43.14,54.08,42.62,53.92Z"/><path class="cls-1" d="M41.06,17.77c.33-1.25.42-2.26,1.53-2.43.92-.15.55.88,1,1.22.47-.1.49-.56.73-.84.45-.52,1.09-.63,1.35,0a9.9,9.9,0,0,0,1.89,2.36c.23.08.34,0,.26-.24-.15-.94-1.27-1.93.13-2.8.31-.19.43-.82.83-.64s.41.82.28,1.26a17.5,17.5,0,0,0-.58,4.28,2,2,0,0,0,.32,1.56,45,45,0,0,0,1.28-8.09c-3.61,1.4-7.31,2.14-11.16.62A6,6,0,0,1,41.06,17.77Z"/><path class="cls-1" d="M22.39,13.95a.31.31,0,0,0,.29-.35c-.11-1.06.6-.69,1.06-.57a41.26,41.26,0,0,1,7,2.36c1.54.72,3,1.21,4.39-.25.2-.2.53-.26.77-.44s1.21-.35,1-.94-.93-.05-1.34.08a8.4,8.4,0,0,1-6.77-.2,52.76,52.76,0,0,0-5.62-2c-.91-.32-1.29,0-1.28.87.05.36.09.7.16,1S22.14,14,22.39,13.95Z"/><path class="cls-1" d="M57.16,14.4C59.81,13,62.4,11.59,65,10.07c.67-.4,1.34-1.54,2.4-.55,0,0,.27-.08.29-.15.09-.4.4-.81.19-1.22s-.67-.33-1-.2a7.87,7.87,0,0,0-1.6.77,22.62,22.62,0,0,1-9.87,4.19c-.24,0-.53,0-.59.35S56.73,14.62,57.16,14.4Z"/><path class="cls-1" d="M49.18,61.77c.05-2.08-2.81-6.65-4.38-7.36-.42-.19-.84-.29-1.15.13a.84.84,0,0,0,.16,1.16A43.54,43.54,0,0,1,49.18,61.77Z"/><path class="cls-1" d="M31.46,24.59c2.21,1.82,4.76,1.79,7.43,1.58C37.7,23.83,34.47,23.3,31.46,24.59Z"/><path class="cls-1" d="M44.18,35.48c-.47,1.52-1.65,1.91-2.8,2.35l-1,.32c.43.2.73.22,1-.1,1.75-.1,3.42.6,5.17.53a1.14,1.14,0,0,1,1,.66c.42.71.86.7,1.38.13.28-.31.82-.25,1-.7C48.24,37.27,45.26,38.29,44.18,35.48Z"/><path class="cls-1" d="M137,29.19a1.37,1.37,0,0,0,.84-1.3c0-.6-.47-.72-.93-.86l-1.93-.61a1,1,0,0,0-1.17.22,1.13,1.13,0,0,0,0,1.31l1,1.92c.08,1.32-.92,1.66-1.86,2.08-.52.23-1.21.12-1.69.76,1.64.14,3.23-.85,4.65.45-1-1.51-1-1.61-.64-3C135.76,29.81,136.34,29.48,137,29.19Z"/><path class="cls-1" d="M66.06,79.33a7.85,7.85,0,0,1-1,0h0a13.82,13.82,0,0,0-1.52,0c-.79.09-.46.77-.56,1.21-.07.29-.07.7.27.77.58.11.48-.42.55-.76s.15-.38.41-.37a.39.39,0,0,1,.37.26,2.65,2.65,0,0,1-.78,2.58.6.6,0,0,0-.28.37.36.36,0,0,0,.4.39c.76,0,1.53,0,2.29,0a.6.6,0,0,0,.4-.24c.11-.15,0-.4-.12-.43-1.62-.26-.65-1.52-.88-2.3-.08-.26-.05-.63.4-.62s.39.25.39.52,0,.69.42.64.34-.5.37-.83C67.22,79.73,67,79.2,66.06,79.33Z"/><path class="cls-1" d="M111.46,80.32c.65-.52,1.22-.31,1.67.44.31.52.62.34.75-.19.38-1.56-.88-1.14-1.68-1.37a2.12,2.12,0,0,0-2.09,1.31,2.42,2.42,0,0,0,.35,2.74,2.21,2.21,0,0,0,2.57.56c.43-.15,1.07-.3.88-.87s-.68-.08-1,0c-.69.19-1.38.32-1.73-.53A1.7,1.7,0,0,1,111.46,80.32Z"/><path class="cls-1" d="M99.42,81.25c-.1-.58-.43-1-1-1a12.7,12.7,0,0,1-2.08.09c-.33,0-.66.21-.34.67a1.76,1.76,0,0,1,0,2.08c-.16.26-.23.56.06.62a2.36,2.36,0,0,0,1.36,0c.59-.26,0-.58-.09-.88-.09-.56-.29-1.19.28-1.64a.45.45,0,0,1,.68,0,1.43,1.43,0,0,1,.09,1.67c-.79,1.07.08.83.59.91.37-.09,1.17.05.8-.55A4.88,4.88,0,0,1,99.42,81.25Z"/><path class="cls-1" d="M122.71,78.91a2.38,2.38,0,0,0-1.49.17c-.65.4-.55,1.43-1.39,1.73-.09,0,0,.28.18.41.86.81.85,1.05,0,1.86a.66.66,0,0,0-.2.42c0,.27.24.31.45.32s.59,0,.89,0h1c.26,0,.55,0,.58-.35a.4.4,0,0,0-.49-.44c-.72.08-.69-.36-.7-.86s0-1,.79-.92a.39.39,0,0,0,.47-.32c0-.25-.11-.36-.33-.45s-.92.23-.86-.4.63-.4,1-.4c.23,0,.44-.05.48-.31S123,78.93,122.71,78.91Z"/><path class="cls-1" d="M103.27,83c-.68.15-.9-.15-.94-.8s.36-.82.94-.82c.29,0,.66,0,.65-.43s-.36-.46-.66-.42c-.74.1-1-.26-1-.92a.39.39,0,0,0-.4-.4c-.24,0-.44.08-.45.33,0,.52,0,1-.69,1.16-.24.07-.2.51.1.59.72.2.57.75.55,1.23,0,1.09.58,1.4,1.56,1.38a3.23,3.23,0,0,0,.34,0c.49-.11,1.23-.16,1.13-.75S103.67,82.91,103.27,83Z"/><path class="cls-1" d="M37.73,21.79c.27.91,1.1,1,1.81,1.14,1.57.36,2,1.22,1.43,2.76-.19.51-.73.91-.58,1.63a4.26,4.26,0,0,0,1.4-2c.87-2.42-.46-4.08-3-3.73a.92.92,0,0,1-.84-.13c-.23-.87.62-1.81-.25-3,0,1.34-.39,2.32,0,3.33Z"/><path class="cls-1" d="M125.53,13.95c.59,0,1.17,0,1.91,0A7.08,7.08,0,0,1,126.25,10l0-.22a1.67,1.67,0,0,0,.07-.45l.34-2.13c-.6.47-.57,1.12-.7,1.72a24.64,24.64,0,0,1-1.39,3.65C124.05,14,124,14,125.53,13.95Z"/><path class="cls-1" d="M94.55,83c-.86.1-.84-.42-.81-1a9.91,9.91,0,0,0,0-1.27c0-.48-.43-.45-.76-.44s-.83-.12-1,.33.26.41.5.58c.55.41.41,1.63-.19,1.78-.32.08-.79,0-.74.46s.59.33.94.37a7.58,7.58,0,0,0,.76,0h0c.42,0,.85,0,1.27,0,.21,0,.44,0,.48-.31A.38.38,0,0,0,94.55,83Z"/><path class="cls-1" d="M47.42,21.19c-.76-1,0-2.66-1.47-3.53.32,2.44.4,4.76,1.32,7C46.88,23.44,48.32,22.39,47.42,21.19Z"/><path class="cls-1" d="M101.1,40.93c-.89,0-2.06-.14-2.56.37-1.38,1.41-3.06,1.49-4.78,1.64l-1.81-.52a1.17,1.17,0,0,0-1.51.12l1,.14a5.59,5.59,0,0,0,2.37.43C96.62,43.76,98.92,42.58,101.1,40.93Z"/><path class="cls-1" d="M85.16,39.77,84,39.33a2.34,2.34,0,0,0-1.94-.7,4.32,4.32,0,0,0,1.65,1,2.24,2.24,0,0,0,1.06.47l1.54.49c3,1,5.68.12,7.14-2.41-2,1.25-3.78,2.37-6,2.16l-2.3-.53Z"/><path class="cls-1" d="M44,20.47c-.55-.06-.29.58-.43.89a5.3,5.3,0,0,0-.36,1.08A1.75,1.75,0,0,0,44,24.31a.72.72,0,0,0,.58.13c.21-.09.17-.37.11-.57a3.51,3.51,0,0,1-.23-2.28C44.49,21.08,44.47,20.52,44,20.47Z"/><path class="cls-1" d="M134.19,18.32c.26,0,.24-.32.27-.51a4.42,4.42,0,0,1,.94-2.32c.27-.3.24-.71-.15-1.16-.52.58-1,1.1-1.46,1.66a1.66,1.66,0,0,0-.16,1.91C133.74,18.13,133.88,18.38,134.19,18.32Z"/><path class="cls-1" d="M146.43,14c.63-.49,1.34-.87,2-1.3a1.81,1.81,0,0,0,1.41-.58,2.23,2.23,0,0,0-1.42.37c-1.36.36-3-.12-4.1,1.44C145.11,14,145.69,14.6,146.43,14Z"/><path class="cls-1" d="M79.87,81.68a2.25,2.25,0,0,0-.88,0c-.53.15-1.55-.43-1.52.44s1,.19,1.48.39a6.73,6.73,0,0,0,.85,0c.37-.05,1,.24,1-.39S80.23,81.73,79.87,81.68Z"/><path class="cls-1" d="M103.85,38.09a6.48,6.48,0,0,0,3.34-2.21,13.76,13.76,0,0,0-3.72,1.92,11.91,11.91,0,0,1-4.35.75l-1.3-.44-.74-.33-.38-.33c-2-1.86-2-2.39,0-4.26.06-.06.16-.09.19-.16a.53.53,0,0,0,.06-.32A1.42,1.42,0,0,0,95,31.63a2,2,0,0,1-1,0,1.47,1.47,0,0,0-1.78.87c-.35.78.34,1,.78,1.38,1,.79,2,1.54.89,3a3.7,3.7,0,0,0-.35,1.21c1.29-.67,1.29-.67,2.93,0a1.09,1.09,0,0,0,.25,0c.19.25.48.24.75.28h0a3.71,3.71,0,0,0,1.61.42,6.9,6.9,0,0,0,4.72-.68Z"/><path class="cls-1" d="M136.29,14.33c.34,1.11.48,2.26.74,3.43C137.67,15.92,137.54,15.22,136.29,14.33Z"/><path class="cls-1" d="M38.15,38.59c-1.3-.19-2.25-.78-3.6-.82C35.75,38.87,36.35,39,38.15,38.59Z"/><path class="cls-1" d="M165.89,44l-2.72-2.77A38.45,38.45,0,0,0,165.89,44Z"/><path class="cls-1" d="M127.37,78.42c0-.09-.33-.4-.42-.37a2,2,0,0,0-1,1.32c-.05.15.09.31.38.31C126.68,79.31,127.23,79,127.37,78.42Z"/><path class="cls-1" d="M92.7,79.3c0,.3.13.47.45.46s.49-.25.5-.57-.17-.58-.55-.55S92.71,79,92.7,79.3Z"/><path class="cls-1" d="M33.77,34.8l2.15.41A2,2,0,0,0,33.77,34.8Z"/><path class="cls-1" d="M126.76,30.09a2,2,0,0,0-1.08-.44l-1.24-.35c-.18-.25-.47-.2-.72-.26-.56-.23-1.1-.58-1.73,0l1.44.29,1,.25,1,.33a2.19,2.19,0,0,0,1.07.44l1.25.52c.33,0,.58.51,1,.19a1.1,1.1,0,0,0-1-.42A1.36,1.36,0,0,0,126.76,30.09Z"/><path class="cls-1" d="M6.19,32.2l2-2.11A6.67,6.67,0,0,0,6.19,32.2Z"/><path class="cls-1" d="M64,40.35a4.83,4.83,0,0,0,1.6.87C65.42,40.35,64.84,40.14,64,40.35Z"/><path class="cls-1" d="M169.82,30.89c-.52-.27-.94-.75-1.63-.63C168.68,30.6,169.12,31,169.82,30.89Z"/><path class="cls-1" d="M86.6,36.28a2,2,0,0,0,1.59.6C87.64,36.38,87.23,36,86.6,36.28Z"/><path class="cls-1" d="M86.6,36.28h0s0,0,0,0Z"/><path class="cls-1" d="M168.42,36.39c-.25-.22-.43-.63-1.1-.34.47.24.62.64,1.1.6h0a2.74,2.74,0,0,0,1.51,1.18A3.32,3.32,0,0,0,168.42,36.39Z"/><path class="cls-1" d="M158.4,31.93l-1.27-.23-1.79-.26c-1.07,0-1.32-.44-1-1.43a14.48,14.48,0,0,0,.31-2.11l2.53-.13,1.75.08a4,4,0,0,0,1.79.25l2.05.45h0c.33,0,.62.42,1,.11-.25-.41-.64-.33-1-.34a5.53,5.53,0,0,0-2.05-.45l-1.79-.25-1.22-.09a2.29,2.29,0,0,0-.72-.16c-1.13.14-2,0-2.26-.93q0-.49-.09-1c-.43-1.28.33-3.27-2.06-3.38-.14,0-.3-.39-.39-.61-.18-.42-.32-.86-.48-1.33a1.3,1.3,0,0,0,0,1.87,11.72,11.72,0,0,1,1.72,2.94c.77,2.16.59,2.46-1.61,2.62l-.25,0a1.37,1.37,0,0,0-1.09.17c-.58-.61-.49-1.45-.73-2.18s-.83-1.13-1.42-.9.05.75.12,1.14c.13.76.63,1.51,0,2.27a5.06,5.06,0,0,0-2.1.48c.76.43,1.4-.08,2.09-.24,0,0,0,.06,0,.09.83.6,1,1.74,2,2.22-.8.4-1.7-.15-2.28.54a3,3,0,0,0-1.38.08.93.93,0,0,0-.16-.14,2.44,2.44,0,0,0-2-.47l-.15.08a2.22,2.22,0,0,0-1.17-.62c-.29,1,.74.56,1,.95a.21.21,0,0,0,.2.07c0,.77-.67.34-1,.56a5.32,5.32,0,0,0-1.83.39c-.4.1-.9-.08-1.26.57l1.27-.27A8,8,0,0,0,143.9,32l1.73-.08c.31.33.79.55.81,1.08,0,.23.1.72-.34.51s-1,.26-1.44.2a2.08,2.08,0,0,0-1.33-.19,3.85,3.85,0,0,0-2.42.26H143a2.27,2.27,0,0,0,1.34.18,7.06,7.06,0,0,0,4.8.84l.23.43h0a17.89,17.89,0,0,1-5.58,2.36c-1.89.42-3.9,1-5.86.07-.28-.14-.72-.56-1,0s.17.8.61,1a3.75,3.75,0,0,0,1,.22c2.14.14,4.33.84,6.3-.66a1.21,1.21,0,0,1,.62-.14,10.86,10.86,0,0,0,4.9-1.95c.23-.14.43-.42.78-.29-.88,1.72-2.81,3.73-4.61,3.55a3.1,3.1,0,0,0-3.06,1.18.82.82,0,0,1-.79.34,5.3,5.3,0,0,0-2.71.55c.5.7,1.17.29,1.78.28,2.58-.19,5.2-.16,7.55-1.52.24-.14.49-.49.78-.23s0,.63-.18.89a6.12,6.12,0,0,1-4.76,2.59c-2.07.23-4.15.35-6.23.52-.42,0-1,0-1.11.42s.53.68.92.89a6,6,0,0,0,3.36.51c2.62-.21,5.24-.61,7.87,0a1.62,1.62,0,0,0,1.82-.86,7.23,7.23,0,0,0,.63-7.15c-.51-1.21-.28-1.77.82-1.71a1.36,1.36,0,0,0,1.28.36c-.18-.48-.64-.45-1-.58s-.9-.22-.54-.93a6.08,6.08,0,0,0,.6-1.9c.16-1.08.69-1.51,1.75-1.3a4,4,0,0,0,1.78.28c.29.26.66.2,1,.24a5,5,0,0,0,1.59.43c.33,0,.64.35,1.08.07a1,1,0,0,0-.8-.31A3.3,3.3,0,0,0,158.4,31.93Zm-7.81.95c-1.51,1.09-2.66.68-3.57-1.27a10,10,0,0,0,1.5,0,2.85,2.85,0,0,0,.77.11c.34,0,.68,0,1,0s.75-.07.83.38S150.87,32.68,150.59,32.88Zm2.39-3.1c-.33.64-.68.72-1.08.07-.31-.5-.45-1.08-.74-1.58a.59.59,0,0,0,.79-.2l.05,0C153.36,28.18,153.6,28.6,153,29.78Z"/><path class="cls-1" d="M164.33,34.22a2.41,2.41,0,0,0,1.47.75A1.1,1.1,0,0,0,164.33,34.22Z"/><path class="cls-1" d="M164.29,34.22h0Z"/><path class="cls-1" d="M165.8,35v0l0,0Z"/><path class="cls-1" d="M155.58,11.72a3.73,3.73,0,0,1-.39,1.84,28.38,28.38,0,0,0-1.29,4c1.26-.46,2.45-4.05,2-5.92h0c-.67-.81-1.57-.43-2.39-.44a3.69,3.69,0,0,0-2.35.71l2.34-.5C154.23,11.54,154.95,11.33,155.58,11.72Z"/><path class="cls-1" d="M1.87,35a1.71,1.71,0,0,0,1.44-.53A1.35,1.35,0,0,0,1.87,35Z"/><path class="cls-1" d="M127.34,28.47a2.09,2.09,0,0,0,1.56.83A2.32,2.32,0,0,0,127.34,28.47Z"/><path class="cls-1" d="M144.39,29c.65.46,1.2.13,1.76-.2A2.36,2.36,0,0,0,144.39,29Z"/><path class="cls-1" d="M40.28,18.86a5.26,5.26,0,0,0-.43-1.57h0A2.47,2.47,0,0,0,38.64,15l1,2.85C39.72,18.19,39.66,18.67,40.28,18.86Z"/><path class="cls-1" d="M10.61,41.42A1.87,1.87,0,0,0,12,40.25,2.42,2.42,0,0,0,10.61,41.42Z"/><path class="cls-1" d="M157.5,37.7a2.64,2.64,0,0,0,1.67,1A3,3,0,0,0,157.5,37.7Z"/><path class="cls-1" d="M7.78,44.5A3.71,3.71,0,0,0,9.22,43,2.43,2.43,0,0,0,7.78,44.5Z"/><path class="cls-1" d="M9.2,29.47c-.41.12-.84.23-1,.89C8.79,30.17,9.11,30,9.2,29.47Z"/><path class="cls-1" d="M40.65,19.53c-.75.11,0,.43-.06.65.68.15.57-.49.79-.79s.53-.36.28-.79a.82.82,0,0,0-.46.81h0A1.24,1.24,0,0,1,40.65,19.53Z"/><path class="cls-1" d="M50.72,32.67l-1.31.39.08.3L50.79,33Z"/><path class="cls-1" d="M39.61,36.14c-.25-.55-.73-.46-1.09-.59l-1-.26c-.39,0-.75-.44-1.22-.12a1.7,1.7,0,0,0,1.2.38c.19.24.47.2.73.24A1.91,1.91,0,0,0,39.61,36.14Z"/><path class="cls-1" d="M154.57,36.4h0v0h0v0Z"/><path class="cls-1" d="M16.08,37.33c-.31.13-.69.19-.73.67a1.17,1.17,0,0,0,1-.45c.28-.14.66-.15.81-.56C16.64,36.86,16.4,37.21,16.08,37.33Z"/><path class="cls-1" d="M11.72,31.69c-.61.12-1.28.07-1.71.77l2-.53c.43-.05.91.05,1.25-.42C12.66,31.31,12.21,31.66,11.72,31.69Z"/><path class="cls-1" d="M88.43,35c.18.65.54.77,1.12,1.1A1.49,1.49,0,0,0,88.43,35Z"/><path class="cls-1" d="M3.48,34.28A1,1,0,0,0,4.6,34C4.17,33.76,3.85,33.89,3.48,34.28Z"/><path class="cls-1" d="M142.4,29.93s.26.12.4.18l.86-.46c.26,0,.55,0,.69-.3a1.06,1.06,0,0,0-1,0C143,29.58,142.51,29.41,142.4,29.93Z"/><path class="cls-1" d="M140.12,30.87a2.55,2.55,0,0,0,1.5-.43A1.19,1.19,0,0,0,140.12,30.87Z"/><path class="cls-1" d="M5.16,33.75a2.62,2.62,0,0,0,1.66-.6A2,2,0,0,0,5.16,33.75Z"/><path class="cls-1" d="M127,5.34a3.63,3.63,0,0,0,.43-1.75,2.31,2.31,0,0,0-.7,1.75c0,.48-.37.92-.14,1.44A2.25,2.25,0,0,0,127,5.34Z"/><path class="cls-1" d="M101.64,33.47c.45-.36.87-.48,1-1.23C102.14,32.62,101.69,32.74,101.64,33.47Z"/><path class="cls-1" d="M161.43,33.12l1.83.67a1.53,1.53,0,0,0,1,.41c-.08-.6-.61-.59-1-.73A2.59,2.59,0,0,0,161.43,33.12Z"/><path class="cls-1" d="M164.31,34.2h0v0Z"/><path class="cls-1" d="M105.65,32l-.92.51A.62.62,0,0,0,105.65,32Z"/><path class="cls-1" d="M167.54,30.16a1.69,1.69,0,0,0-1.44-.87,1.51,1.51,0,0,0-1.27-.34c.34.47.84.43,1.25.59Z"/><path class="cls-1" d="M165.84,35a1.5,1.5,0,0,0,1.21.6A1.18,1.18,0,0,0,165.84,35Z"/><path class="cls-1" d="M165.81,35h0l0,0Z"/><path class="cls-1" d="M86.43,34l1.23.63C87.48,34.17,87.19,33.88,86.43,34Z"/><path class="cls-1" d="M17.75,36.72c.65-.05,1-.1,1.22-.63A1.32,1.32,0,0,0,17.75,36.72Z"/><path class="cls-1" d="M155.61,36.78c-.3-.23-.54-.6-1-.39A.7.7,0,0,0,155.61,36.78Z"/><path class="cls-1" d="M70.6,44.36a2.39,2.39,0,0,0,1.14.9c-.37-.67-.62-.94-1-1.07C70.67,44.27,70.59,44.34,70.6,44.36Z"/><path class="cls-1" d="M166,44.71c.2.33.21.85.82.86A.92.92,0,0,0,166,44.71Z"/><path class="cls-1" d="M103.48,32c.44-.17.78-.23,1-.79A.91.91,0,0,0,103.48,32Z"/><path class="cls-1" d="M10.86,28.59A1.62,1.62,0,0,0,12.19,28,1.23,1.23,0,0,0,10.86,28.59Z"/><path class="cls-1" d="M105.22,30.52c-.17.09-.42.13-.38.4,0,.07.16.12.33.23.13-.16.32-.3.36-.47S105.39,30.43,105.22,30.52Z"/><path class="cls-1" d="M39.14,33.3a.77.77,0,0,0,.88.51C39.79,33.54,39.6,33.21,39.14,33.3Z"/><path class="cls-1" d="M10.45,28.94s-.13-.26-.15-.26c-.25.09-.6.1-.57.52C10.07,29.38,10.26,29.15,10.45,28.94Z"/><path class="cls-1" d="M159.85,39c-.05,0-.17.08-.25.13l.21.34c.39,0,.47-.05.39-.17A.88.88,0,0,0,159.85,39Z"/><path class="cls-1" d="M161.25,40.11a1.85,1.85,0,0,0,1.22,1A1.73,1.73,0,0,0,161.25,40.11Z"/><path class="cls-1" d="M39.5,34.87c-.21-.4-.6-.39-.95-.45A1.27,1.27,0,0,0,37,34.07l1.54.63C38.86,34.74,39.11,35.13,39.5,34.87Z"/><path class="cls-1" d="M8.64,32.44A2.29,2.29,0,0,0,7,33.13a2.73,2.73,0,0,0,1.63-.41c.33-.1.82.1.94-.47C9.22,32.13,9,32.39,8.64,32.44Z"/><path class="cls-1" d="M108.23,33.43c-.09-.41-.45,0-.69,0-.07,0-.15,0-.23.08l-1.54.48c-.32.16-.8.06-1,.71a2.58,2.58,0,0,0,1.31-.46,4.12,4.12,0,0,0,1.52-.53C107.84,33.67,108.31,33.79,108.23,33.43Z"/><path class="cls-1" d="M14.22,38.45h0c-.37.2-.82.33-1,.88a1.19,1.19,0,0,0,1-.54c.25-.11.75-.09.53-.53C14.65,38,14.38,38.28,14.22,38.45Z"/><path class="cls-1" d="M129.38,29.61c.23.57.44.77.93.78C130.15,30,129.9,29.82,129.38,29.61Z"/><path class="cls-1" d="M81.86,62.23a2.58,2.58,0,0,0-1.31-1.67c-1.34-.52-2.32-1.18-2.34-2.78a.61.61,0,0,0-.73-.56.75.75,0,0,0-.59.74,9.83,9.83,0,0,0-.06,1.53c0,.92-.88.79-1.27,1.22-.17.18-.37.33-.61,0-1.25-1.58-2.76-1.37-4.38-.59a3.72,3.72,0,0,0-.11-.49c-.18-.49-.17-1.21-.94-1.15s-.85.64-1,1.18a3.82,3.82,0,0,0-.09.89A43.19,43.19,0,0,0,69,66.41a1,1,0,0,0,1.44,1,10.49,10.49,0,0,0,.26-3.53,5.1,5.1,0,0,1,.08-1.26c.32-1,1.57-1.82,2.36-1.5,1.16.47,1,1.47.76,2.39a6.46,6.46,0,0,1-3.45,4.19c-.33.46-.48,1,0,1.36a1.28,1.28,0,0,0,1.74-.19,9.59,9.59,0,0,0,3.22-5.5c.14-.69.33-1.21,1-1.27,0,1.55,0,3.07,0,4.59a43.19,43.19,0,0,0,.11,8.15,2.29,2.29,0,0,0,.85,1.65.68.68,0,0,0,.93,0,.52.52,0,0,0-.1-.87c-.58-.4-.39-1-.37-1.52q.25-5.67.56-11.35c0-.43-.24-1.09.32-1.24s1,.37,1.34.82a1.56,1.56,0,0,1,.3.56c.44,2.06.84,4.12-.85,5.87-.36.37-.57.77-.15,1.23a.89.89,0,0,0,1.27.06,1.79,1.79,0,0,0,.59-.65A9.14,9.14,0,0,0,81.86,62.23Z"/><path class="cls-1" d="M39.85,38.42a1.42,1.42,0,0,0-1.51.26C38.94,38.88,39.36,38.49,39.85,38.42Z"/><path class="cls-1" d="M87,37.43c0-.13-.2-.16-.37-.16s-.32.14-.22.31a.62.62,0,0,0,.43.17C86.95,37.76,87.09,37.68,87,37.43Z"/><path class="cls-1" d="M145.61,22.54c-1.47-1.87-4.61-.83-5.34,1.09-.57,1.49-.51,1.73,1,2.14-.54-2.11-.39-2.64,1-3.29.11,1.17-1.18,3,1.11,3.16,1.85.12,1.33-1.52,1.37-2.68,1.14,1.1,1.14,1.69.08,3,.16,0,.36,0,.48,0,.72-.46.91-1.35,1.47-2C147,23.77,146,23.07,145.61,22.54Z"/><path class="cls-1" d="M130.36,18.65c-.7.85-1.34,1.72-.72,2.83a1.2,1.2,0,0,0,1.57.47c1.32-.49.75-1.69.87-2.64,1.48.75,1.36,2.28-.22,3.46a1.61,1.61,0,0,1-1.38.08,1.44,1.44,0,0,1-.23-.1l-.17.17c.89.44,1.86.09,2.78.28.5-.16.5-.16.64-1.08.32-2.07-.32-3.51-1.91-4.09a2.79,2.79,0,0,0-3.18.58,1.78,1.78,0,0,0-.15,2.59C128.4,19.2,128.81,18.69,130.36,18.65Z"/><path class="cls-1" d="M140.89,63.64c-1.47-.74-3-1.42-4.73-.17a7,7,0,0,1,.08-.71c.14-.57.23-1.19-.45-1.41s-1,.38-1.22.87a5.16,5.16,0,0,0-.3.7c-1,3-.74,6.13-.52,9.23.06.87.61,1.23,1.5,1.14,1.77-.17,3.32-1.05,5-1.47,2.32-.58,3.21-2.07,3.56-4.2a2.52,2.52,0,0,0-.64-2.35A8.31,8.31,0,0,0,140.89,63.64Zm-2.73,7-2.58.55c-.42-1.25.08-1.86,1.29-2a6.3,6.3,0,0,1,1-.22c.33,0,.9-.61,1,.12C138.88,69.65,139.1,70.48,138.16,70.67Zm.84-4.94c-.14.46.27,1.13-.38,1.35a11.69,11.69,0,0,1-2.81.65c-.32,0-.23-.68-.08-1A6.39,6.39,0,0,1,137,64.9a1.46,1.46,0,0,1,1.59-.49C139.3,64.66,138.86,65.29,139,65.73Zm1.53-.46a1.62,1.62,0,0,1,1.1.7C140.51,66.59,140.51,66.59,140.53,65.28Zm0,4.6c-.24-1.74-.24-1.74,1.67-2.13C142.48,69.09,141.8,69.69,140.57,69.88Z"/><path class="cls-1" d="M63,55.1a2.6,2.6,0,0,0-3-.16,12.17,12.17,0,0,0-2.51,1.79,17.05,17.05,0,0,0-.31-1.79c-.11-.37-.15-.93-.73-.88s-.76.51-.75,1a49.17,49.17,0,0,0,.25,6.74,1.4,1.4,0,0,0,1.16,1.34,16.22,16.22,0,0,0,6.3.09c.35-.08.8-.23.74-.73s-.52-.55-.88-.57c-.87,0-1.74,0-2.9,0a13.3,13.3,0,0,0,2.88-4C63.59,56.93,63.92,55.93,63,55.1ZM62,58a10.32,10.32,0,0,1-3.24,3.35c-.34.23-.74.59-1.15.37s-.16-.76-.22-1.11a5.09,5.09,0,0,1,3.09-4.35c.52-.17,1.1-.31,1.54.19A1.22,1.22,0,0,1,62,58Z"/><path class="cls-1" d="M128.4,63.6a8,8,0,0,0-1.76,1.07c0-1.15,0-2.15,0-3.15,0-.51,0-1.2-.8-1.26s-1,.57-1,1.18a85.3,85.3,0,0,0-.1,8.92c.06,1.09.76,1.43,1.81,1a8.58,8.58,0,0,0,2.43-1.61,7.13,7.13,0,0,0,2.5-3.3,2.19,2.19,0,0,0-3-2.84Zm1.26,2.46a6.35,6.35,0,0,1-3.13,3.11A5.5,5.5,0,0,1,128.93,65c.24-.11.46-.22.67,0A1,1,0,0,1,129.67,66.05Z"/><path class="cls-1" d="M87.86,59.69a3,3,0,0,0-1.74.7c-.5.49-.71.37-.95-.22a.89.89,0,0,0-1.1-.64c-.51.15-.53.64-.52,1.05.06,2.12.13,4.24.24,6.36A1.32,1.32,0,0,0,85,68.32a5.69,5.69,0,0,0,6.43-5.54C91.47,60.23,90.39,59.32,87.86,59.69Zm-1.16,7c-.75.09-1.14.07-1-1,.19-1.55,0-3.14,1.5-4.24a1.72,1.72,0,0,1,1.88-.36,1.59,1.59,0,0,1,.86,1.69A3.92,3.92,0,0,1,86.7,66.73Z"/><path class="cls-1" d="M99.61,60.46c.33-1.25.62-2.64-.58-3.54s-2.32-.08-3.35.63c-.22-.56-.4-1.12-.65-1.64a.67.67,0,0,0-.87-.34.61.61,0,0,0-.46.67,55.46,55.46,0,0,0,.47,8.26c.23,1.27.93,1.49,2,.74A8.23,8.23,0,0,0,99.61,60.46Zm-2.69-1.78c.29-.25.56-.61,1-.41a.94.94,0,0,1,.43,1,4.93,4.93,0,0,1-2.47,3.86C95.71,61.41,95.53,59.86,96.91,58.68Z"/><path class="cls-1" d="M134.36,11.16c-.19.31-.41.65-.09.95.11.1.28-.22.35-.41a1.71,1.71,0,0,1,1.83-.84c1,.26,0,1.11.45,1.62.19-.09.38-.16.55-.26,1.16-.68,1.57-.46,1.65.84a10.92,10.92,0,0,0,.21,1.24c-1.41,1.4-1.12,3.36-2,5.27,1-.55.95-1.45,1.5-1.91.34.25,0,.76.41,1s.49.07.81-.37a37.46,37.46,0,0,0,4-5.86c-3.83-.44-7.63-1.2-10.29-4.55a8.45,8.45,0,0,0,.44,1.68A4.51,4.51,0,0,1,134.36,11.16Zm5.6,4.71a3.88,3.88,0,0,0,.24-1.26,1.29,1.29,0,0,1,1.22-1.69c.37-.06.76-.66,1.09-.17s0,.92-.38,1.26a19.61,19.61,0,0,0-2.65,4,7,7,0,0,1,0-3.51C139.57,15,139.87,15.38,140,15.88Z"/><path class="cls-1" d="M75.15,80.31c-.78-.19-1.58.22-2.41.07-.34-.06-.49.26-.22.71a3.23,3.23,0,0,1,.15,3.14c-1.23,1.56.1,1,.5,1.1a5.5,5.5,0,0,0,1.09,0c.48-.12.51-.5.13-.7s-.81-.18-.61-.71.58-.07.87-.08a1.65,1.65,0,0,0,1.77-1.48A1.61,1.61,0,0,0,75.15,80.31ZM74.55,83c-.63-.09-.83-.5-.8-1.07s.31-.91.85-.88.84.49.8,1.06A.85.85,0,0,1,74.55,83Z"/><path class="cls-1" d="M84.29,79.38l-.63,0h-.51c-.71,0-1.56-.22-.87,1.11a3.23,3.23,0,0,1-.06,2.48c-.13.31-.47.69,0,.8A2,2,0,0,0,84,83.6c.06,0,0-.34-.06-.45-.54-.76-.55-.75.43-.93s1.46-.53,1.43-1.48S85.14,79.44,84.29,79.38Zm-.47,2c-.47.07-.54-.23-.56-.62s.13-.64.54-.58.88.06.91.53S84.23,81.35,83.82,81.41Z"/><path class="cls-1" d="M118.14,81.11c-.39-1.1-1.31-.94-2.12-.82-.43.06-1.27.06-.79,1h.13c.62,0,1.59-.82,1.75,0,.12.67-1.09.1-1.63.4h0c-.53.35-.94.77-.69,1.46a1.15,1.15,0,0,0,1.33.75,4.76,4.76,0,0,1,2.06-.11c.26.08.61-.24.45-.41C118,82.7,118.39,81.84,118.14,81.11Zm-1.69,2c-.29,0-.65,0-.66-.39,0-.53.46-.49.79-.55s.69-.08.69.37S116.79,83.1,116.45,83.16Z"/><path class="cls-1" d="M88.41,80.24a1.94,1.94,0,0,0-2,1.87,2,2,0,0,0,2.17,1.83,1.89,1.89,0,0,0,2-1.87A1.93,1.93,0,0,0,88.41,80.24Zm.15,2.85a.91.91,0,0,1-1-1,.93.93,0,0,1,1-1,.92.92,0,0,1,.91,1C89.45,82.68,89.18,83.06,88.56,83.09Z"/><path class="cls-1" d="M69.69,80.24a1.86,1.86,0,1,0,.08,3.69,1.86,1.86,0,0,0,2-1.82A1.9,1.9,0,0,0,69.69,80.24Zm0,2.86a1,1,0,0,1-1-1.09.94.94,0,0,1,1.1-1,.93.93,0,0,1,.91,1A1,1,0,0,1,69.7,83.11Z"/><path class="cls-1" d="M126,82.31c.67-.06,1.34-.07,2-.1-.09-1.28-.7-2-1.82-2a1.83,1.83,0,0,0-2.06,1.49,1.68,1.68,0,0,0,1.23,2.08,2,2,0,0,0,2.64-.95c-.7-.31-1.26.39-1.94.25-.34-.07-.77-.1-.79-.48C125.2,82.1,125.7,82.33,126,82.31Zm-.82-.66c.68-.9.94-.91,1.84,0Z"/><path class="cls-1" d="M69.07,42.7c.07-.42.55-.86.91-.62,1.23.81,2.69.72,4,1.15.75.24,1.45.56.84,1.59,1.32,0,2.48-.43,3.6.36.2.14,1.08.6,1.21.27.4-1,1.48-1.73.91-3.13-.45-1.08-.58-2.15-2-.93-.16-.58.52-.93.36-1.09-.72-.74.08-.73.39-1,.92-.85,1.71-1.88,3.11-2,.13,0,.24-.32.37-.49.72-.18,1.34.29,2,.29a1.72,1.72,0,0,0,1.48.24,2.88,2.88,0,0,0-1.48-.53c-.28-.12-.64-.13-.72-.52.58.1.5-.68,1-.73a3.62,3.62,0,0,0,1.52.72c0-.78-1.18-.46-1.16-1.25h0c.36-.44.06-1.29.9-1.43-.35-1.14.65-1.61,1.25-2,1.05-.72,1-1.19,0-1.79,1.13-.66,1.13-.66,1.74.18a1,1,0,0,0,1,.44c.5,0,1.9-2.72,1.67-3.17a4.93,4.93,0,0,0-.28-.42c-.35-.54-.67-1.08-1-1.6A1.31,1.31,0,0,1,91.09,23a3.4,3.4,0,0,0,1.72-3.07c0-1.09.14-2.17.21-3.25C94,19,95.34,20.79,98,21.32c-.09.37-.73.68-.32,1.06s.8,0,1.21-.09c.58-.18,1.08-.66,1.84-.55-.7.93-1.92,1.18-2.33,2.33a18.43,18.43,0,0,1-.89,2.86c-.25.46-.71,1.16-.19,1.64S98,27.92,98.6,28a4.47,4.47,0,0,0,1.87-.12.76.76,0,0,0,.21-.07c2.08,0,3.56-1.68,5.79-2.07l-2,1.66a9.61,9.61,0,0,0,3.34,1c.2,0,.87-.2.53.5a3.1,3.1,0,0,0-1.34.7c-.3.13-.68.14-.77.61.47,0,.72-.26,1-.4a3.77,3.77,0,0,0,1.32-.69c1-.72,1.61.56,2.48.54-.17.68-.94.28-1.26.71a1.22,1.22,0,0,0-1,.35,1.33,1.33,0,0,0-1.29.49,1.64,1.64,0,0,0-1.42.74,1.76,1.76,0,0,0,1.4-.59h0a1.4,1.4,0,0,0,1.29-.52c.47.14.84-.18,1.26-.25a4.89,4.89,0,0,0,1.56-.41,1.7,1.7,0,0,1,1.68,1.45c-.43.22-1.42-.29-1.17.85l-1.77.27c-.59.15-1.28,0-1.91.72a6.5,6.5,0,0,0,2.19-.49,3.14,3.14,0,0,0,1.49-.27,5.41,5.41,0,0,1,2.34.36c-.17.22-.53,0-.61.28.59.61,1.55.75,2.11,1.63-.93-.06-1.64-.56-2.53-.46.94,2.46,4.09,1.64,5.39,3.77l-2.3-.27a2.17,2.17,0,0,0-1.6-.36,1.15,1.15,0,0,0,1,.65,4.74,4.74,0,0,0,2,.54c.9.47,1.9,0,2.82.31a7.15,7.15,0,0,0,4.62,1.48c1.06,0,2.55.47,2.58-1.46.93-.18.29-.53.09-.84s-.52-.3-.33-.68.25-.56-.11-.77-1-.07-1.2-.58c.63-.28,1.18.22,1.78.2s1.16.34,1.3-.21-.66-.54-1-.8a.7.7,0,0,0-.24-.06,42,42,0,0,0-5.4-4.25,8.88,8.88,0,0,1-1.57-2.07c.6-.62-.6-1-.23-1.54a3.91,3.91,0,0,1,2.65.3c.41.16.8.38,1-.27.18,0,.5,0,.47-.24s-.48-.36-.76-.48a.46.46,0,0,1-.23-.54c.23-1,.7-1.16,2.24-.53a4.7,4.7,0,0,0,2.7.84c-.53-1-1.46-1-2.21-1.35,0-.81-.68-.71-1.2-.8l0,0a1.65,1.65,0,0,0-1.51-.8,1.69,1.69,0,0,0-1-.51,2.69,2.69,0,0,0-1.3-.47l-.55-.28h0a.38.38,0,0,0,.1-.23c1.4-.82,3-1.31,4-2.81.12-.19.42-.27.62-.42s.7,0,.51-.52a.6.6,0,0,0-.85-.32,4,4,0,0,0-1.09.64c-1.18,1-2.33,2-3.49,3-.67.37-.84,0-.8-.57,1.46-2.13,3.66-3.62,5.31-5.88a3.13,3.13,0,0,0-2.16,1.17c-1,1-2.07,2.12-3.1,3.19h0c-.14.28-.17.64-.66.7.12-.37.06-.75.34-1h0l.08-.67h0c.21-.25.48-.62.17-.81s-.37.28-.44.53a6.71,6.71,0,0,0-1.05,3.31c-.3.46-.75.26-1.16.27l-3.68,0a1.56,1.56,0,0,0-1.15.16h0c.06-.54.6-.39,1-.57a10.72,10.72,0,0,0-2.74-.48l.8-1.09c-.76-.41-1,.7-1.75.43.24-1.08-.5-2.35.69-3.29a3.31,3.31,0,0,1-2.28-3.85,14.83,14.83,0,0,0,.3-6.57c-.23-1.43-.66-1.6-2-1.09-1.85.71-3.35,2-5.3,2.66a16.68,16.68,0,0,0-4.57,2.07c-1.37,1-3.06.72-4.66.74-2.91.05-5.84,1.35-8.73-.17,0,0-.09,0-.12,0-1.2-.68-2.76-.29-3.83-1.26a7.07,7.07,0,0,0-3.34-1.43,1.6,1.6,0,0,0-2.18,1.28,22.17,22.17,0,0,0-.94,6.54,21.65,21.65,0,0,1-1.35,7.87c-.75,1.85-1.49,3.7-2.08,5.61A2,2,0,0,1,69,30.81c0-.21-.05-.35-.08-.5-.5-2.45-.5-5.08-1.86-7.24a14.39,14.39,0,0,1-2.32-6.5,11.52,11.52,0,0,0-2.34,2.15c-.53.61-.42,1,.32,1.35a5.06,5.06,0,0,1,2.4,1.56c-1,.33-1.84.71-1.52,2.13C62,22.58,60.47,21.58,58.53,22c0,1.12,1.25.78,1.68,1.49a4.67,4.67,0,0,0-2.13.22c-1.31.52-2.64.94-4,1.41a18.07,18.07,0,0,0-2.92.91c-1.26.7-1.25.71-1.8-.66a.29.29,0,0,0-.07,0h0c.29-.52.78-.54,1.3-.59A14.64,14.64,0,0,0,57.91,22c-1.69,0-3.39-.13-5.07,0a4,4,0,0,0-3.76,3.32c-.55,1.87.16,2.82,2.11,3.12a14.6,14.6,0,0,0,3.92-.18,77.51,77.51,0,0,1,8.49-.93c.33,0,.9-.19,1,.32s-.5.5-.84.65a1.32,1.32,0,0,1-.5.1c-3.7,0-7.16,1.4-10.8,1.77-.35,0-.76,0-1,.42.89,1,2,.82,3,.53a22.6,22.6,0,0,1,8.73-.44c.4,0,1,0,1,.5s-.57.78-1.13.78a22.25,22.25,0,0,0-3.53.51h0a4,4,0,0,0-1.82-.25,6.44,6.44,0,0,0-3.18,0l-1.22.09a5.53,5.53,0,0,0-2.5.63,7.26,7.26,0,0,0,2.51-.39l1.76-.08h2.08c.3.15.73-.15.94.28a2.24,2.24,0,0,0-1.49.48c-.33.31-1.17.25-.73,1.08a.37.37,0,0,0,.54,0c-.13.2-.39.06-.56.18,0,0,0,0,0,0-.13-.15-.36-.08-.49-.2h-.77a13.11,13.11,0,0,0-4.49.25h4.21a3.12,3.12,0,0,0,1.58.19c.16.09.43,0,.5.28-1.45-.06-2.58.79-3.83,1.28A1.94,1.94,0,0,0,51.33,36c-.24-.15-.63-.39-.7,0s.41.29.7.29c.34.18.87,0,1,.55a1.12,1.12,0,0,0-.63.91c-.27,2.33-1.91,3-3.88,3.27a17.91,17.91,0,0,1-2.28.22c-1.88,0-3.7.79-5.6.48-.45-.07-1.5.93-1.23-.66,0-.25-.47,0-.7.15-1.42.21-2.79-.29-4.19-.28-.33,0-.89,0-1-.14-.47-1-1.25-.51-1.94-.48-.47,0-.94,0-1.59,0,.72-.63,1.58-.52,2.15-1.09-1.5-.29-3-.46-4.23-1.73A36.27,36.27,0,0,0,32,36.84c.83-.13.43-.7.51-1,.18-.64-.43-.3-.64-.29-1.29.06-2.59.18-4,.29,1.11-1.75,2.66-1.34,4.09-1.35a1,1,0,0,0,1.24-.07,1.9,1.9,0,0,0-1.24-.19l-.74-.08c-.11-.12-.57-.05-.23-.42,1.58-.42,3.16-.9,4.81-.29a.52.52,0,0,0,.79.11,1.19,1.19,0,0,0-.79-.34c.33-.93.87-1.33,1.79-.67.2.17.52.49.64.12s-.37-.4-.67-.46h0c-.19-1.07-.91-1.18-1.82-1.07a2.72,2.72,0,0,1-1-.26c.41.65-.19.47-.46.55a15,15,0,0,1-2.06.5c-.11,0-.22,0-.33.07a2.55,2.55,0,0,0-1-.15c-.29-.29-.67-.23-1-.23-.23-.26-.6-.17-.89-.26a8,8,0,0,1,4.25-.81.59.59,0,0,0,.2-.14v0c.28.14.49.59.88.18l-.35-.3-.42-.13c.11-.27.52-.08.67-.29a24.32,24.32,0,0,0,3.88-.57,1.68,1.68,0,0,0,.79-2.73c-.33.35-.23.8-.29,1.2-.09.58-.5.82-.87.43-1.19-1.24-2.74-1-4.18-1.1s-2.81-1-4,.5a1.49,1.49,0,0,1-1.47,0c-.45-.44-.05-1.12.18-1.65a6.94,6.94,0,0,1,.68-1,.84.84,0,0,0-1.22.37,10.07,10.07,0,0,0-.68,1.5c-.42,1-1,1-1.66.24a16.08,16.08,0,0,1,4.2-6.37c-1.45-.62-3.26-.23-3.47.86a3.5,3.5,0,0,1-1.7,2.25c-.42.3-1,.48-1.06,1.13,1.81-.43,2-.21,1.8,1.61,0,.17,0,.34,0,.5s-.36.2-.56.24a6.8,6.8,0,0,0-2.3-.45l-1-.09a9.85,9.85,0,0,0-4.45,0l-1,.1-1.27.23a3.31,3.31,0,0,0-1.64.54,2.14,2.14,0,0,0,1.65-.25c.43-.07.89,0,1.28-.28L17.55,27l-.24-.08a.38.38,0,0,1,.24.08h3.12l1.5.08a10.22,10.22,0,0,0,2.31.44c.6.67,0,1.09-.4,1.43a25.42,25.42,0,0,1-2.14,1.72,12.78,12.78,0,0,0-3.89.18l-1.22.07a10.21,10.21,0,0,0-3,.43l0,.32,3.27-.5,1.46-.08,3.09.06a6.6,6.6,0,0,0,.48,3.36.35.35,0,0,1-.21.52l-1.78.51c-.34.16-.83.07-1,.62a1.86,1.86,0,0,0,1.33-.37,3.68,3.68,0,0,0,1.49-.49c.16,0,.42,0,.46.1a10.61,10.61,0,0,0,2.92,3.46c.25.24.69.57.34,1-.75.82,0,.83.46.86,2.25.16,4.36,1.57,6.72.74.11,0,.32,0,.37,0,.64.84,1.42.39,2.16.26a2.3,2.3,0,0,1,1.37,0,1,1,0,0,0,.84.48c5.12.43,10.19.42,15.18-1.07a34.82,34.82,0,0,1,10.08-1.22c.91.28,1.75-.18,2.63-.24,1.33-.09,1.52.07,1.29,1.36,0,.21-.13.4-.15.62s.55.31.5.68c-.22,1.79.33,1.93,1.67.88C69,43,69,43,69.07,42.7ZM119.85,24a.41.41,0,0,1,.26-.46l.49-.55,1.24.06,1.06.36,1.26.52,1,.48a2.94,2.94,0,0,0-2.3,1.16.84.84,0,0,1-1,.4,1.5,1.5,0,0,1-1.29-.44A1.28,1.28,0,0,1,119.85,24Zm-5.91-1.77c1.1,0,2.21,0,3.31,0,.43,0,1-.13,1.25.37s-.3,1-.73,1.33a4.25,4.25,0,0,1-4.57-1.29C113.28,22.26,113.76,22.49,113.95,22.23ZM100.08,24.8a.4.4,0,0,1,.48.35c0,.25-.15.38-.38.39a.31.31,0,0,1-.35-.28C99.81,25,99.88,24.85,100.08,24.8Zm2-.12a2.06,2.06,0,0,1-.65,2.4,1.45,1.45,0,0,1-1.07.45l-.23.08-1.06,0c-1.5-.41-.64-1.15-.25-1.82.32.46.39,1.12,1,1.32a2.16,2.16,0,0,0,1.28-.32,1.72,1.72,0,0,0-.74-2.55C101,24.24,101.89,24,102.11,24.68ZM86.3,26.5c.24,0,.37.15.34.41s-.17.39-.43.31-.38-.24-.28-.47A.51.51,0,0,1,86.3,26.5ZM85,26c.34-.26.67-.43,1,0l-.69.29a1.9,1.9,0,0,0,1,2.34c1.4-.06,1.53-.27,1.23-2.12.76.2,1.51.46,1.34,1.46s-1.13,1.13-2.57.81a2,2,0,0,1-1.78-1C84,27,83.82,26.3,85,26ZM25.2,28.33c0-.32.05-.63.52-.49.21.06.57,0,.45.41a.78.78,0,0,1-.68.51C25.2,28.8,25.2,28.53,25.2,28.33Zm.24,5.57c-.39-.77.78-1.22,1.39-1.7a9.32,9.32,0,0,1,1-.59,4.68,4.68,0,0,1,1.93.15c.36.19.77.12,1.14.27.21.07.6-.08.48.39a25.07,25.07,0,0,0-3.63,1.48C27,34.21,25.84,34.68,25.44,33.9Z"/></svg>