<svg id="圖層_1" data-name="圖層 1" xmlns="http://www.w3.org/2000/svg" viewBox="0 0 23.84 23.55"><defs><style>.cls-1{fill:#ffa742;}</style></defs><title>head-hover</title><path class="cls-1" d="M6.34,5.54a8.63,8.63,0,0,1,11.17,0l.15-.17L21.6.57A1.24,1.24,0,0,1,22.9,0a1.17,1.17,0,0,1,.9,1.16c0,.85,0,1.7,0,2.55,0,3.61,0,7.23,0,10.84A8.64,8.64,0,0,1,22.19,20a8.21,8.21,0,0,1-6.63,3.5c-2.46.06-4.93.05-7.4,0a8.48,8.48,0,0,1-8-6.88A10.67,10.67,0,0,1,0,14.72c0-4.48,0-9,.07-13.44A1.18,1.18,0,0,1,1,0a1.23,1.23,0,0,1,1.3.53L5.75,4.82Z"/></svg>