<svg id="圖層_1" data-name="圖層 1" xmlns="http://www.w3.org/2000/svg" viewBox="0 0 256.41 80"><defs><style>.cls-1{fill:#fff;}</style></defs><title>navbar-logo</title><path class="cls-1" d="M184.37,67.65c1.58,0,2-1.66,2.23-3.08A52.83,52.83,0,0,0,187,54.51a2.52,2.52,0,0,1,1.68-2.67,70.14,70.14,0,0,0,7.83-4.76c1.47-1,4.23-2.3,3.19-4-1.31-2.09-3.47.08-5.06,1-2.44,1.43-4.62,3.34-7.68,4.09-.15-2.5-.22-4.87-.46-7.21a2,2,0,0,1,1.72-2.47c3-.76,5.8-1.93,8.86-2.33.77-.1,1.66-.3,1.5-1.41s-.87-1.2-1.74-1.24a33,33,0,0,0-5.88.63c-5,.63-4.91.59-5-4.48,0-1.54.33-2.05,1.93-2.05a69.5,69.5,0,0,0,7.09-.5c1.34-.14,3.19-.22,3.05-2-.11-1.47-1.81-1.54-3.13-1.56-2.27,0-4.55-.17-6.82-.05-1.85.1-2.39-.63-2.35-2.39s.31-3.58-.31-5.3-1.79-2.52-3.19-.77a49.76,49.76,0,0,0-4.2,6.08c-3.75,6.5-7.37,13.09-12.06,19-.56.7-.86,1.74-1.81,1.93,0-3.85,0-7.61,0-11.36,0-1.72.52-2.81,2.4-3,.8-.08,1.69-.36,1.72-1.32s-1-1.27-1.69-1.3c-2.19-.08-2.11-1.46-2-3,.22-2.86.41-5.72.49-8.58,0-1.14,0-2.67-1.54-2.75s-2.31,1.12-2.5,2.49a50.19,50.19,0,0,0-.61,7.08c0,3-.45,4.79-4.14,4.64-1.72-.07-5-.16-4.68,2.71.25,2.55,3.11,1.62,5,1.82,1,.11,2-.54,2.86.14,1.17,1-.45,6.53-2,7a18.42,18.42,0,0,0-6.61,3.22c-.88.7-2.16,1.51-1.24,2.89s2.11.59,3.14,0c2-1.14,3.81-2.79,6.1-3.41,1.42,6.2.1,11.34-4.56,15.46a11.21,11.21,0,0,0-1.74,2.39c-.54.84-1.12,1.79-.24,2.68s2.11.47,2.92-.26c1.34-1.21,2.52-2.59,4-4.17.27,5.28.44,10.11.79,14.94.11,1.52.37,3.61,2.42,3.48s1.54-2.2,1.54-3.58q0-9.49-.18-19a6.56,6.56,0,0,1,1.37-4.37,192.07,192.07,0,0,0,13.77-21.07c.71-1.24,1.48-2.44,2.22-3.66l1,.17c0,9.64,0,19.28,0,28.92,0,4.35,0,8.7.19,13C182.31,65.73,182.45,67.66,184.37,67.65Z"/><path class="cls-1" d="M28.78,47.19a25.44,25.44,0,0,0-2-8.29c-.44-.87-1.07-1.9-2.22-1.53s-.92,1.48-.79,2.33c.39,2.63.83,5.26,1.35,7.86.81,4,.83,3.95-3.35,4.51-1.69.23-2.3-.09-2.09-1.9.13-1.18.7-3.08-.69-3.42-1.81-.43-2,1.74-2.74,2.93a3.66,3.66,0,0,0-.51,1.38c-.22,1.65-1.16,2.24-2.77,2.42-3.52.41-7,1-10.53,1.58-1.27.23-2.55.84-2.38,2.51.19,1.9,1.73,1.55,3,1.6,3.55.15,6.95-1.08,10.73-1.47-.58,1.66-1.07,3-1.54,4.42A115.37,115.37,0,0,1,7.38,73.9c-.4.85-.69,1.95.42,2.64s1.9-.06,2.57-.77a17.47,17.47,0,0,0,3.12-5.33c1.25-2.93,2.38-5.91,3.67-9.17,3,3.53,5.5,7,8.71,9.78,1,.9,2.44,2.54,3.71,1.26,1.1-1.1-.48-2.51-1.26-3.56a70,70,0,0,0-8.85-9.55c-.84-.78-1.89-2-.64-2.6,2.07-1,4.5-1.32,6.76-2,1.43-.44,1.22.92,1.77,1.45s1.38.29,1.43-.23c.22-2.56,2.71-3.06,4.32-5.11C29,52.11,29.08,49.53,28.78,47.19Z"/><path class="cls-1" d="M253.87,17.94c-3.09.16-4.29-1.11-4.24-4.15a2,2,0,0,0-2.19-2c-1.3.1-1.77,1.11-1.89,2.29a6.14,6.14,0,0,0-.12,1.47c.25,1.68-.58,2-2.05,1.92-2.57-.11-5.14-.09-7.71,0-1.25,0-2.06-.17-2.09-1.71,0-1.27-.19-2.76-2-2.69a2.34,2.34,0,0,0-2.34,2.57c0,2-1.13,1.88-2.49,1.91-2.86.06-5.73.15-8.58.39-1.25.1-2.74.39-2.92,2A4,4,0,0,0,217.15,24c1,.56,2.48,1.62,2.63-.91.08-1.32,1.11-1.8,2.28-1.88,1.58-.11,3.17,0,4.74-.22,1.83-.19,2.4.49,2.31,2.32-.13,2.76-.06,5.54.08,8.3a2.9,2.9,0,0,0,2.37,3,3.18,3.18,0,0,0,3.17-1.21c.61-.78,1.08-2.09-.63-1.87s-1.62-.76-1.59-1.69c.08-2.37.29-4.73.43-7.1.08-1.4.83-1.77,2.15-1.71,2.76.12,5.54.21,8.3.11,1.86-.06,2,.75,1.93,2.32a29,29,0,0,1-3.54,12.12c-.58,1.05-1.66,2-1.19,3.67,1.94-.42,3-1.84,4-3.27a25.69,25.69,0,0,0,3.87-10.48c.51-3.15,1.68-4.46,4.93-3.79,1.19.25,2.84.29,3.05-1.47S255.09,17.88,253.87,17.94Z"/><path class="cls-1" d="M32.6,10.4A17.66,17.66,0,0,0,25.26,10c-1.54.14-1.85-.27-1.63-1.74a12.62,12.62,0,0,0-.32-5.58C22.79.94,21.73-.25,19.93,0c-2,.33-2.17,2.1-1.91,3.74.32,1.94.83,3.86,1.29,5.78.22.9.5,1.73-.78,2.1A66,66,0,0,0,8.39,16c-.25-1.88-.39-3.55-.72-5.18C7.46,9.74,7,8.66,5.62,8.66s-1.87,1.06-2,2.18c-.42,4.62-1,9.25-.18,13.89.21,1.2.07,2.89,1.8,2.94s2.25-1.72,2.26-3c0-2.46,1.48-3.74,3.25-4.9s3.29-2.19,5-3.1a23.42,23.42,0,0,1,11.34-3c4,.08,4.85,1.53,2.92,5a46.55,46.55,0,0,1-3.49,4.77c-.35.47-.83,1-.3,1.55s.91,0,1.34-.13c3.57-1.31,7.56-7.19,7.55-11A3.34,3.34,0,0,0,32.6,10.4Z"/><path class="cls-1" d="M66.13,73c1.07-1.15-.46-2.12-1.14-2.93-2.93-3.44-5.62-7.14-10-9.55,3.72-1.41,7.3-2.31,10.32-4.4,1.28-.89,3.7-1.81,2.64-3.59-.87-1.47-2.84.1-4.22.71-2.16,1-4.17,2.39-6.87,2.31.71-2.51,1.84-4.66,2-7,0-.81.49-1.94-.65-2.3-.86-.27-1.37.62-1.84,1.23a21.82,21.82,0,0,0-3.67,7.05c-.83,2.74-2.69,3.33-5.08,3.45-2.06.1-4.17-.14-6.15.67-.83.34-1.73.81-1.56,1.88s1.09,1.08,1.87,1.09c2.46,0,4.91,0,7.82,0-1.81,4.07-3.63,7.87-5.18,11.77-.85,2.13-3.41,5.3-.91,6.45s3.28-2.94,4.38-5c1.91-3.5,3.48-7.18,5.26-10.93.75.62,1.3,1,1.81,1.49,2.59,2.28,5.14,4.63,7.8,6.83C63.67,73,65,74.18,66.13,73Z"/><path class="cls-1" d="M69.81,10.71a39.35,39.35,0,0,0-7.37-.23c-2.63.2-4.21-.09-3.17-3.28a8.93,8.93,0,0,0,.11-2.35c0-.73-.1-1.45-.82-1.75a1.84,1.84,0,0,0-2.09.71,6.2,6.2,0,0,0-1.34,2.91c-1,4.31-.59,8.61,0,12.91.14,1,.14,2.29,1.33,2.31,1.39,0,1.41-1.43,1.59-2.44.87-5,.85-5,6.06-4.92h1.18v.09c1.38,0,2.76,0,4.14,0s2.75.56,3-1.39S71.15,10.86,69.81,10.71Z"/><path class="cls-1" d="M15.45,21.84c-1.14-.35-1.74.79-2.25,1.58-3.86,6-7.38,12.14-9.57,19-.31.95-1.19,2.13.28,2.84s2-.55,2.57-1.39c3.45-5.17,6.82-10.4,9-16.27.38-1,.59-2.08.83-3C16.13,23.5,16.64,22.21,15.45,21.84Z"/><path class="cls-1" d="M30.68,40.07c.13-4.82-6.53-15.45-10.16-17.1-1-.44-1.94-.66-2.67.31a2,2,0,0,0,.36,2.7A101.1,101.1,0,0,1,30.68,40.07Z"/><path class="cls-1" d="M106.57,41.15c-.55-1.62-1.49-3.29-3-3.88-3.1-1.2-5.38-2.75-5.43-6.45a1.41,1.41,0,0,0-1.69-1.3A1.74,1.74,0,0,0,95,31.23a22.83,22.83,0,0,0-.14,3.54c.11,2.14-2,1.82-3,2.83-.39.43-.85.78-1.41.07-2.91-3.67-6.42-3.19-10.16-1.37a8.64,8.64,0,0,0-.26-1.15c-.42-1.14-.4-2.8-2.18-2.67-1.52.12-2,1.49-2.31,2.75a8.88,8.88,0,0,0-.21,2.06c-.09,4.57.85,9,1.38,13.54.22,1.87,1.35,2.8,3.33,2.3,1-2.67.48-5.46.6-8.2A11.85,11.85,0,0,1,80.93,42c.73-2.37,3.66-4.23,5.48-3.49,2.7,1.1,2.3,3.4,1.76,5.55a15,15,0,0,1-8,9.72C79.4,54.86,79,56,80.19,57c1.4,1.13,2.88.58,4-.43a22.27,22.27,0,0,0,7.49-12.78c.32-1.6.76-2.8,2.4-2.94,0,3.59.07,7.13,0,10.65-.16,6.31-.78,12.63.26,18.93a5.32,5.32,0,0,0,2,3.83,1.59,1.59,0,0,0,2.16,0,1.2,1.2,0,0,0-.24-2c-1.34-.94-.92-2.33-.86-3.54Q98,55.5,98.71,42.33c.05-1-.56-2.54.73-2.87s2.32.85,3.11,1.91a3.63,3.63,0,0,1,.69,1.3c1,4.78,2,9.56-2,13.63-.83.86-1.32,1.8-.35,2.85a2.07,2.07,0,0,0,2.94.13,4.15,4.15,0,0,0,1.37-1.5A21.21,21.21,0,0,0,106.57,41.15Z"/><path class="cls-1" d="M243.64,44.42c-3.41-1.71-6.88-3.3-11-.4a16.15,16.15,0,0,1,.18-1.65c.32-1.32.52-2.75-1-3.27s-2.22.87-2.82,2a12,12,0,0,0-.7,1.63c-2.42,7-1.72,14.24-1.21,21.43.14,2,1.41,2.85,3.49,2.65,4.1-.4,7.71-2.45,11.59-3.42,5.38-1.34,7.45-4.81,8.26-9.76a5.85,5.85,0,0,0-1.49-5.45A19.3,19.3,0,0,0,243.64,44.42Zm-6.33,16.32-6,1.27c-1-2.91.18-4.31,3-4.63a14.63,14.63,0,0,1,2.29-.51c.78,0,2.09-1.42,2.26.28C239,58.36,239.49,60.29,237.31,60.75Zm2-11.47c-.32,1.07.62,2.62-.87,3.13a27.15,27.15,0,0,1-6.53,1.52c-.74.06-.53-1.59-.2-2.31a14.84,14.84,0,0,1,3-4.28c1-1,2.27-1.68,3.7-1.14S238.92,48.25,239.26,49.28Zm3.55-1.06a3.77,3.77,0,0,1,2.56,1.62C242.77,51.27,242.77,51.27,242.81,48.22Zm.08,10.68c-.57-4-.57-4,3.88-4.94C247.32,57.08,245.74,58.47,242.9,58.89Z"/><path class="cls-1" d="M62.66,24.58c-2.17-1.87-4.58-1.44-6.94-.37a28.25,28.25,0,0,0-5.83,4.16,39.6,39.6,0,0,0-.73-4.16c-.25-.87-.35-2.16-1.69-2.05s-1.76,1.18-1.75,2.35c0,5.22-.16,10.45.58,15.65A3.26,3.26,0,0,0,49,43.27a37.67,37.67,0,0,0,14.64.2c.81-.18,1.87-.53,1.73-1.69s-1.22-1.27-2.05-1.31c-2-.1-4,0-6.73,0,2.95-3.2,5.34-5.92,6.69-9.34C64.14,28.84,64.9,26.52,62.66,24.58Zm-2.12,6.74A24,24,0,0,1,53,39.12c-.8.54-1.73,1.36-2.67.87s-.37-1.76-.5-2.57C50,33.18,53.28,28.53,57,27.32c1.22-.39,2.54-.71,3.58.43S61.18,30.21,60.54,31.33Z"/><path class="cls-1" d="M214.65,44.31a18.5,18.5,0,0,0-4.09,2.49c0-2.66.11-5,0-7.33-.08-1.19-.09-2.78-1.86-2.92s-2.36,1.33-2.43,2.73A198.08,198.08,0,0,0,206,60c.14,2.52,1.76,3.32,4.2,2.33a19.92,19.92,0,0,0,5.65-3.74c2.44-2.16,4.86-4.34,5.8-7.67.61-2.16.52-4.17-1.14-5.76S216.75,43.63,214.65,44.31ZM217.58,50c-.78,2.46-3.92,5.66-7.26,7.23-.12-3.21,3-8.4,5.56-9.57.57-.26,1.07-.52,1.55.11A2.25,2.25,0,0,1,217.58,50Z"/><path class="cls-1" d="M120.5,35.24a7,7,0,0,0-4,1.63c-1.17,1.15-1.65.87-2.2-.51a2.07,2.07,0,0,0-2.56-1.48c-1.18.34-1.23,1.48-1.2,2.44.14,4.93.31,9.86.55,14.78a3.06,3.06,0,0,0,2.88,3.18,13.22,13.22,0,0,0,14.92-12.86C128.88,36.51,126.37,34.37,120.5,35.24Zm-2.7,16.35c-1.73.22-2.65.17-2.36-2.21.43-3.6.11-7.29,3.48-9.85,1.37-1,2.75-1.57,4.36-.83s2.08,2.24,2,3.93C125.17,47.15,121.88,51.08,117.8,51.59Z"/><path class="cls-1" d="M147.78,37c.77-2.91,1.43-6.13-1.34-8.22s-5.39-.2-7.77,1.46c-.5-1.31-.92-2.6-1.5-3.82a1.56,1.56,0,0,0-2-.79,1.42,1.42,0,0,0-1.08,1.56c.21,6.4-.08,12.85,1.09,19.18.54,2.95,2.17,3.47,4.73,1.72A19.11,19.11,0,0,0,147.78,37Zm-6.26-4.14c.67-.57,1.31-1.41,2.28-1a2.19,2.19,0,0,1,1,2.29c-.18,4-2.42,6.61-5.73,9C138.73,39.24,138.31,35.64,141.52,32.89Z"/></svg>