<svg id="圖層_1" data-name="圖層 1" xmlns="http://www.w3.org/2000/svg" viewBox="0 0 22.86 20"><defs><style>.cls-1{fill:#fff;}</style></defs><title>paw-white</title><path class="cls-1" d="M11.43,8.57c-3.55,0-8.57,5.48-8.57,8.94,0,1.56,1.2,2.49,3.2,2.49,2.18,0,3.62-1.12,5.37-1.12S14.64,20,16.8,20c2,0,3.2-.93,3.2-2.49C20,14.05,15,8.57,11.43,8.57ZM4.85,8A2.9,2.9,0,0,0,1.66,5.77,2.53,2.53,0,0,0,.15,9.13a2.9,2.9,0,0,0,3.19,2.24A2.53,2.53,0,0,0,4.85,8Zm3.78-.93c1.38-.36,2.07-2.23,1.54-4.17S8.1-.3,6.72.06,4.65,2.29,5.18,4.23,7.26,7.44,8.64,7.08ZM21.2,5.77A2.9,2.9,0,0,0,18,8a2.53,2.53,0,0,0,1.51,3.36,2.9,2.9,0,0,0,3.19-2.24A2.53,2.53,0,0,0,21.2,5.77Zm-7,1.31c1.38.36,2.93-.91,3.46-2.85S17.52.43,16.14.06,13.21,1,12.68,2.91,12.84,6.72,14.22,7.08Z"/></svg>