<svg id="圖層_1" data-name="圖層 1" xmlns="http://www.w3.org/2000/svg" viewBox="0 0 34 31"><defs><style>.cls-1{fill:#ffa742;}</style></defs><title>paw-main</title><path class="cls-1" d="M17,13.38c-5.26,0-12.71,8.13-12.71,13.26,0,2.31,1.78,3.69,4.75,3.69,3.23,0,5.37-1.66,8-1.66s4.76,1.66,8,1.66c3,0,4.75-1.38,4.75-3.69C29.75,21.51,22.29,13.38,17,13.38Zm-9.75-.84c-.69-2.29-2.81-3.78-4.74-3.32s-2.93,2.69-2.24,5S3.11,18,5,17.54s2.93-2.69,2.24-5Zm5.61-1.38c2-.54,3.07-3.31,2.29-6.18S12.1.22,10.05.76,7,4.07,7.76,6.94,10.85,11.71,12.89,11.17ZM31.53,9.23c-1.93-.46-4,1-4.74,3.32s.32,4.53,2.24,5,4-1,4.74-3.32-.32-4.53-2.24-5ZM21.18,11.17c2,.54,4.35-1.35,5.13-4.23S26.07,1.3,24,.76,19.67,2.11,18.89,5,19.13,10.63,21.18,11.17Z"/></svg>